<svg xmlns="http://www.w3.org/2000/svg" viewBox="0 0 352.29 107.95"><defs><style>.cls-1{fill:#006230;}.cls-2{fill:#f8d800;}.cls-3{fill:#77736c;}</style></defs><g id="Capa_2" data-name="Capa 2"><g id="Capa_1-2" data-name="Capa 1"><path class="cls-1" d="M123.88,78.84q-10,0-17-5.11a17.07,17.07,0,0,1-7.18-14H115a6.7,6.7,0,0,0,2.94,5.49,11.51,11.51,0,0,0,11.52.45,4.17,4.17,0,0,0,2.32-3.78,4.41,4.41,0,0,0-1.56-3.28,11.35,11.35,0,0,0-3.38-2.2q-1.83-.74-5.71-2.13-5.28-1.9-8.53-3.46a35.42,35.42,0,0,1-6.19-3.81,13.64,13.64,0,0,1-4.27-5.13,16.18,16.18,0,0,1-1.33-6.82,14.31,14.31,0,0,1,6.15-12.24q6.14-4.46,16.33-4.45,9.58,0,16,4.54t6.72,13.29h-15a6.76,6.76,0,0,0-2.5-4.82,8.38,8.38,0,0,0-5.36-1.69,10.74,10.74,0,0,0-5.16,1.18,3.92,3.92,0,0,0-2.19,3.68,4.09,4.09,0,0,0,1.47,3.08A9.45,9.45,0,0,0,120,39.54q1.29.51,4.92,1.73l1.48.51q5.46,1.81,8.75,3.3a32.65,32.65,0,0,1,6.23,3.67,12.55,12.55,0,0,1,4.19,5.2,18.58,18.58,0,0,1,1.24,7.14A15.5,15.5,0,0,1,140.49,74Q134.19,78.84,123.88,78.84Z"/><path class="cls-1" d="M197.73,19.64V32.19H180.15V77.61h-15V32.19H147.53V19.64Z"/><polygon class="cls-1" points="218.73 19.3 212.61 19.3 183.2 77.61 198.83 77.61 203.27 68.27 208.3 57.63 215.65 41.95 223.09 57.63 228.11 68.27 232.51 77.61 248.19 77.61 218.73 19.3"/><polygon class="cls-1" points="73.58 19.3 67.45 19.3 38.05 77.61 53.68 77.61 58.12 68.27 63.15 57.63 70.5 41.95 77.94 57.63 82.96 68.27 87.36 77.61 103.03 77.61 73.58 19.3"/><polygon class="cls-1" points="322.62 19.3 316.49 19.3 287.08 77.61 302.72 77.61 307.15 68.27 312.18 57.63 319.53 41.95 326.97 57.63 332 68.27 336.39 77.61 352.07 77.61 322.62 19.3"/><path class="cls-1" d="M245.54,77.61V72.08l26.24-39.89H246V19.64h46.1v5.54L266.33,65.06H293V77.61Z"/><polygon class="cls-2" points="206.19 77.61 225.17 77.61 215.65 56.98 206.19 77.61"/><path class="cls-1" d="M325.48,71.63a5.91,5.91,0,1,1-5.9-5.91A5.91,5.91,0,0,1,325.48,71.63Z"/><path class="cls-1" d="M64.9,68.21l5.64-11.79,5.64,11.79A6.25,6.25,0,0,1,75,75.32h0a6.25,6.25,0,0,1-8.84,0h0A6.25,6.25,0,0,1,64.9,68.21Z"/><polygon class="cls-1" points="336.52 19.64 352.07 19.64 352.07 49.85 336.52 19.64"/><path class="cls-1" d="M41.92,25.26a19.47,19.47,0,0,0-14.16-5.62H0v58H14.45V31.39H24.3a9.22,9.22,0,0,1,6.4,2.34,7.63,7.63,0,0,1,2.6,5.9,7.72,7.72,0,0,1-2.6,6A9.34,9.34,0,0,1,24.21,48H18.13V59.7h9.46A19.8,19.8,0,0,0,42,54.16q5.7-5.53,5.7-14.53A19.24,19.24,0,0,0,41.92,25.26Z"/><path class="cls-3" d="M87.46,96.13a3.22,3.22,0,0,0-.93.13,2.51,2.51,0,0,0-.81.38,1.81,1.81,0,0,0-.57.6,1.74,1.74,0,0,0-.2.84v5.14a1.57,1.57,0,0,0,.21.83,1.92,1.92,0,0,0,.59.58,3.16,3.16,0,0,0,.84.35,3.94,3.94,0,0,0,1.93,0,3.1,3.1,0,0,0,.85-.35,1.88,1.88,0,0,0,.61-.58,1.5,1.5,0,0,0,.23-.83v-.67H87V99.7h6.08v3.52a4.35,4.35,0,0,1-.47,2.06,4.54,4.54,0,0,1-1.25,1.47,5.33,5.33,0,0,1-1.76.9,6.91,6.91,0,0,1-2,.3,7.45,7.45,0,0,1-2-.29,5.25,5.25,0,0,1-1.77-.88,4.48,4.48,0,0,1-1.26-1.47,4.33,4.33,0,0,1-.48-2.09V98.08a4.21,4.21,0,0,1,.47-2,4.52,4.52,0,0,1,1.25-1.46,5.47,5.47,0,0,1,1.76-.87,7,7,0,0,1,2-.29A6.33,6.33,0,0,1,89,93.6a5.12,5.12,0,0,1,1.37.5,5.19,5.19,0,0,1,1.2.92,5.07,5.07,0,0,1,1,1.41l-2.37,1.25A2.25,2.25,0,0,0,89,96.51,3.37,3.37,0,0,0,87.46,96.13Z"/><path class="cls-3" d="M110.16,107.75h-3.07l-1.23-3.23h-4.21l-1.18,3.23H97.34l5-14.11h2.81Zm-7.77-5.92h2.71l-.9-3.07-.44-2h-.14l-.43,2Z"/><path class="cls-3" d="M120.45,93.64a7.5,7.5,0,0,1,2,.27,5,5,0,0,1,1.73.82,4.17,4.17,0,0,1,1.19,1.43,4.41,4.41,0,0,1,.45,2.06v5a4.34,4.34,0,0,1-.45,2.05,4.12,4.12,0,0,1-1.19,1.39,5,5,0,0,1-1.73.81,7.91,7.91,0,0,1-2,.26h-5.18V93.64Zm0,11.16a5.52,5.52,0,0,0,.92-.08,2.27,2.27,0,0,0,.77-.27,1.51,1.51,0,0,0,.54-.49,1.29,1.29,0,0,0,.2-.72v-5a1.4,1.4,0,0,0-.2-.75,1.53,1.53,0,0,0-.54-.5,2.28,2.28,0,0,0-.77-.29,4.63,4.63,0,0,0-.92-.09H118.2v8.21Z"/><path class="cls-3" d="M142.68,107.75h-2.93V93.64h3.07l3.42,8.11,3.47-8.11h3.07v14.11h-2.93v-5.62l.36-2.73H150l-.68,2-1.93,4.53h-2.19l-2-4.55-.67-1.93h-.2l.32,2.73Z"/><path class="cls-3" d="M162.07,103.1a1.61,1.61,0,0,0,.22.87,2,2,0,0,0,.58.62,2.42,2.42,0,0,0,.83.37,3.73,3.73,0,0,0,.94.12,4,4,0,0,0,1-.12,2.47,2.47,0,0,0,.84-.37A2,2,0,0,0,167,104a1.7,1.7,0,0,0,.22-.87V93.64h3v9.46a4.41,4.41,0,0,1-1.72,3.64,5.27,5.27,0,0,1-1.78.91,7.2,7.2,0,0,1-2.07.3,7,7,0,0,1-2-.3,5.22,5.22,0,0,1-1.77-.91,4.48,4.48,0,0,1-1.25-1.51,4.61,4.61,0,0,1-.47-2.13V93.64h2.95Z"/><path class="cls-3" d="M184.68,100.85V93.64h2.93v14.11h-3.13l-4.31-7.42-.85-1.91-.2,0,.38,2.41v6.88h-3V93.64h2.9l4.46,7.69,1,2.55.2,0c0-.22-.09-.49-.13-.8s-.09-.62-.13-.92-.08-.57-.11-.8A2.94,2.94,0,0,1,184.68,100.85Z"/><path class="cls-3" d="M197,107.75h-2.93V93.64H197Z"/><path class="cls-3" d="M208.64,108a6.89,6.89,0,0,1-2-.3,5.75,5.75,0,0,1-1.79-.88,4.3,4.3,0,0,1-1.26-1.45,4.24,4.24,0,0,1-.48-2.06V98.12a4.14,4.14,0,0,1,.47-2,4.31,4.31,0,0,1,1.24-1.47,5.59,5.59,0,0,1,1.78-.88,7,7,0,0,1,2-.3,5.74,5.74,0,0,1,1.41.18,5.45,5.45,0,0,1,1.38.55,5.76,5.76,0,0,1,1.21,1,5,5,0,0,1,.9,1.35l-2.35,1.27a2.52,2.52,0,0,0-1.2-1.15,3.24,3.24,0,0,0-1.49-.36h-.08a2.75,2.75,0,0,0-.91.14,2.71,2.71,0,0,0-.76.38,1.66,1.66,0,0,0-.54.58,1.52,1.52,0,0,0-.2.79v5.14a1.5,1.5,0,0,0,.19.78,1.69,1.69,0,0,0,.52.58,2.5,2.5,0,0,0,.75.37,3,3,0,0,0,.89.13h.08a3.37,3.37,0,0,0,1.49-.36,2.5,2.5,0,0,0,1.2-1.18l2.53,1.42a5.93,5.93,0,0,1-2.26,2.22A5.7,5.7,0,0,1,208.64,108Z"/><path class="cls-3" d="M222,107.75h-2.93V93.64H222Z"/><path class="cls-3" d="M228.47,93.64H234a5.1,5.1,0,0,1,2.81.72,4.76,4.76,0,0,1,1.67,1.82,5,5,0,0,1,.56,2.34,4.94,4.94,0,0,1-.57,2.34,4.76,4.76,0,0,1-1.68,1.81,5.11,5.11,0,0,1-2.77.71h-2.68v4.37h-2.91Zm5.57,7a2.21,2.21,0,0,0,1.19-.3,2,2,0,0,0,.72-.74,2.12,2.12,0,0,0,0-2,1.89,1.89,0,0,0-.72-.74,2.21,2.21,0,0,0-1.19-.3h-2.66v4Z"/><path class="cls-3" d="M255.05,107.75H252l-1.24-3.23h-4.21l-1.17,3.23h-3.13l4.94-14.11H250Zm-7.78-5.92H250l-.89-3.07-.44-2h-.14l-.44,2Z"/><path class="cls-3" d="M260.15,93.64h2.93V104.8h6.1v3h-9Z"/><path class="cls-2" d="M70,96.85H0v7.21H62.8A7.21,7.21,0,0,0,70,96.85Z"/><path class="cls-2" d="M282.06,96.85h70v7.21h-62.8a7.21,7.21,0,0,1-7.21-7.21Z"/><path class="cls-1" d="M185.16,11.23h-1.37L183,7.68h-4.27L177,11.23h-1.39L181.11.16h1.6Zm-3.45-9.67L180.54,4c-.38.78-.78,1.58-1.2,2.42h3.38Z"/><path class="cls-1" d="M186.15,9.12a3,3,0,0,1,0-.42l.41-3A2.66,2.66,0,0,1,187,4.5a3.27,3.27,0,0,1,.82-.84,3.85,3.85,0,0,1,1.08-.52A4.37,4.37,0,0,1,190.1,3a3.73,3.73,0,0,1,1,.13,3.81,3.81,0,0,1,.85.36l.45-3.18h1.25l-1.47,10.53q-.84.26-1.65.42a8.94,8.94,0,0,1-1.6.16,4,4,0,0,1-1.11-.18,2.64,2.64,0,0,1-.92-.5,2.31,2.31,0,0,1-.6-.84A2.27,2.27,0,0,1,186.15,9.12Zm2.91,1.09c.31,0,.64,0,1,0a6.78,6.78,0,0,0,1-.19l.75-5.48a6.55,6.55,0,0,0-.92-.27,4.33,4.33,0,0,0-.93-.1,2.74,2.74,0,0,0-.7.09,2.57,2.57,0,0,0-.63.28,1.63,1.63,0,0,0-.49.45,1.34,1.34,0,0,0-.24.63l-.41,3.09a1.41,1.41,0,0,0,0,.2,1.37,1.37,0,0,0,.07.45,1.42,1.42,0,0,0,.35.48,1.44,1.44,0,0,0,.53.3A1.83,1.83,0,0,0,189.06,10.21Z"/><path class="cls-1" d="M198,3a4.34,4.34,0,0,1,1.29.2,2.26,2.26,0,0,1,1,.69,3.26,3.26,0,0,1,1.14-.68A3.81,3.81,0,0,1,202.62,3a4,4,0,0,1,1.16.16,2.31,2.31,0,0,1,.92.48,1.88,1.88,0,0,1,.54.83,2,2,0,0,1,.13.75,3.67,3.67,0,0,1,0,.46l-.8,5.6h-1.25l.83-5.7c0-.1,0-.2,0-.28a1.25,1.25,0,0,0-.06-.42,1,1,0,0,0-.34-.45,1.32,1.32,0,0,0-.53-.22,4.65,4.65,0,0,0-.66,0,2.44,2.44,0,0,0-.59.07,2.49,2.49,0,0,0-.56.21,1.51,1.51,0,0,0-.44.35,1.11,1.11,0,0,0-.23.49l-.87,6h-1.22l.83-5.82a1.15,1.15,0,0,0,0-.18.8.8,0,0,0-.08-.37,1.07,1.07,0,0,0-.35-.41,1.7,1.7,0,0,0-.54-.26,2.74,2.74,0,0,0-.64-.08,3.8,3.8,0,0,0-.89.11,2.39,2.39,0,0,0-.74.3l-.95,6.71H194l1.06-7.57a6.71,6.71,0,0,1,1.37-.51A6,6,0,0,1,198,3Z"/><path class="cls-1" d="M207.75,11.23h-1.32l1.16-8.1h1.31Zm1-11.23a.8.8,0,0,1,.63.27.72.72,0,0,1,.19.5.77.77,0,0,1,0,.15,1.09,1.09,0,0,1-.36.66,1,1,0,0,1-.69.27.78.78,0,0,1-.62-.27.69.69,0,0,1-.19-.5,1,1,0,0,1,0-.16A1,1,0,0,1,208,.27,1,1,0,0,1,208.71,0Z"/><path class="cls-1" d="M214,3a3.57,3.57,0,0,1,1.1.17,2.49,2.49,0,0,1,.91.49,1.88,1.88,0,0,1,.57.83,2,2,0,0,1,.13.75,3.19,3.19,0,0,1,0,.42l-.77,5.6h-1.23l.78-5.65a1.41,1.41,0,0,0,0-.2,1,1,0,0,0-.08-.44,1.09,1.09,0,0,0-.36-.46,1.61,1.61,0,0,0-.54-.27,2.82,2.82,0,0,0-.65-.08,4.81,4.81,0,0,0-1.07.12,7.67,7.67,0,0,0-.88.24L211,11.23h-1.25l1.05-7.59c.54-.17,1.09-.33,1.65-.47A7.07,7.07,0,0,1,214,3Z"/><path class="cls-1" d="M219.12,11.23H217.8L219,3.13h1.31Zm1-11.23a.79.79,0,0,1,.63.27.68.68,0,0,1,.19.5.77.77,0,0,1,0,.15,1.09,1.09,0,0,1-.36.66,1,1,0,0,1-.69.27.78.78,0,0,1-.62-.27.69.69,0,0,1-.19-.5,1,1,0,0,1,0-.16,1,1,0,0,1,.36-.65A1,1,0,0,1,220.08,0Z"/><path class="cls-1" d="M224,10.21a2.1,2.1,0,0,0,.56-.07,1.64,1.64,0,0,0,.51-.22,1.56,1.56,0,0,0,.4-.37,1.18,1.18,0,0,0,.21-.54,1,1,0,0,0,0-.17.76.76,0,0,0-.08-.38,1.13,1.13,0,0,0-.33-.36,1.83,1.83,0,0,0-.49-.22,4.45,4.45,0,0,0-.55-.14c-.33-.06-.65-.14-1-.23a2.51,2.51,0,0,1-.85-.42,1.85,1.85,0,0,1-.58-.69,1.6,1.6,0,0,1-.14-.69,1.72,1.72,0,0,1,0-.39,2.35,2.35,0,0,1,.42-1.09,3.07,3.07,0,0,1,.8-.73,3.49,3.49,0,0,1,1-.4A4.29,4.29,0,0,1,225,3a3.35,3.35,0,0,1,1.25.24,2.69,2.69,0,0,1,1.07.73l-.92.89a1.67,1.67,0,0,0-.72-.54,2.07,2.07,0,0,0-.82-.16,4,4,0,0,0-.57,0,2.36,2.36,0,0,0-.58.15,1.39,1.39,0,0,0-.46.33.94.94,0,0,0-.25.56v.11a.8.8,0,0,0,.13.44,1.62,1.62,0,0,0,.4.38,2.53,2.53,0,0,0,.55.26,4.71,4.71,0,0,0,.57.14,5.47,5.47,0,0,1,.9.26,2.81,2.81,0,0,1,.77.46,2,2,0,0,1,.5.73,1.85,1.85,0,0,1,.12.69,2.28,2.28,0,0,1,0,.36,2.57,2.57,0,0,1-.38,1.05,2.74,2.74,0,0,1-.71.73,3.35,3.35,0,0,1-.94.43,4.06,4.06,0,0,1-1,.14A4.1,4.1,0,0,1,222,11a2.66,2.66,0,0,1-1.25-1.31l1-.61a1.94,1.94,0,0,0,.94.87A3.1,3.1,0,0,0,224,10.21Z"/><path class="cls-1" d="M230.75,11.42a3.52,3.52,0,0,1-.75-.08,2.16,2.16,0,0,1-1-.49,2.06,2.06,0,0,1-.58-.87,2.43,2.43,0,0,1-.11-.77,3.64,3.64,0,0,1,0-.45l1.08-7.62h1.23l-.29,2H232l-.17,1.17H230.2l-.61,4.46a1.55,1.55,0,0,0,0,.22,1.17,1.17,0,0,0,.08.44A1.27,1.27,0,0,0,230,10a1.31,1.31,0,0,0,.62.32,1.29,1.29,0,0,0,.4.06,2.45,2.45,0,0,0,.46,0l-.15,1.08Z"/><path class="cls-1" d="M236.46,4.13a2.29,2.29,0,0,0-1.31.37,1.52,1.52,0,0,0-.68,1.12l-.76,5.61h-1.25l.78-5.63a2.76,2.76,0,0,1,1.26-2.06,3.43,3.43,0,0,1,1-.44A5,5,0,0,1,236.58,3a3.65,3.65,0,0,1,.74.08l-.17,1.14-.35-.05Z"/><path class="cls-1" d="M239.84,11.39a2.83,2.83,0,0,1-1-.18,2.25,2.25,0,0,1-.83-.5,2.11,2.11,0,0,1-.51-.84,2.19,2.19,0,0,1-.11-.7,3.67,3.67,0,0,1,0-.46l.44-3a3,3,0,0,1,1.34-2.15,3.78,3.78,0,0,1,1.13-.46A6,6,0,0,1,241.59,3a4.79,4.79,0,0,1,1.45.21,5.8,5.8,0,0,1,1.27.57l-1.05,7.48h-1.09l0-.75a3.16,3.16,0,0,1-1,.67A3.24,3.24,0,0,1,239.84,11.39Zm1.67-7.28a3.85,3.85,0,0,0-.83.1,2.59,2.59,0,0,0-.74.32,2.15,2.15,0,0,0-.57.51,1.62,1.62,0,0,0-.28.73l-.44,3c0,.1,0,.2,0,.28a1,1,0,0,0,.36.85,1.91,1.91,0,0,0,1.19.34A2.4,2.4,0,0,0,241.3,10a4,4,0,0,0,.9-.59l.73-4.93a5.45,5.45,0,0,0-.62-.26A3,3,0,0,0,241.51,4.11Z"/><path class="cls-1" d="M249.11,4.13a2.74,2.74,0,0,0-.7.09,2.57,2.57,0,0,0-.63.28,1.63,1.63,0,0,0-.49.45,1.51,1.51,0,0,0-.26.65l-.48,3.19a1.5,1.5,0,0,0,0,.2,1,1,0,0,0,.09.43,1.08,1.08,0,0,0,.36.44,1.71,1.71,0,0,0,.56.27,3,3,0,0,0,.68.08,2.5,2.5,0,0,0,1.2-.31,1.93,1.93,0,0,0,.87-1l1.1.45a3.29,3.29,0,0,1-.61.88,3.81,3.81,0,0,1-.82.63,3.76,3.76,0,0,1-.93.37,4,4,0,0,1-.95.13,3.5,3.5,0,0,1-1.12-.18,2.6,2.6,0,0,1-.93-.5,2.1,2.1,0,0,1-.59-.86,2,2,0,0,1-.13-.76,3,3,0,0,1,0-.42l.43-3a2.84,2.84,0,0,1,.43-1.19,3.23,3.23,0,0,1,.84-.85,4.12,4.12,0,0,1,1.08-.51A4.29,4.29,0,0,1,249.28,3a3.26,3.26,0,0,1,1.6.41A2.44,2.44,0,0,1,252,4.6l-1.08.51L250.79,5a1.18,1.18,0,0,0-.65-.63A2.7,2.7,0,0,0,249.11,4.13Z"/><path class="cls-1" d="M253.77,11.23h-1.31l1.16-8.1h1.31Zm1-11.23a.8.8,0,0,1,.63.27.71.71,0,0,1,.18.5.76.76,0,0,1,0,.15,1.09,1.09,0,0,1-.36.66,1,1,0,0,1-.69.27.77.77,0,0,1-.62-.27.69.69,0,0,1-.19-.5.92.92,0,0,1,0-.16,1.14,1.14,0,0,1,.36-.65A1,1,0,0,1,254.74,0Z"/><path class="cls-1" d="M259.82,3a3.8,3.8,0,0,1,1.12.17,2.79,2.79,0,0,1,.93.51,2,2,0,0,1,.58.85,1.79,1.79,0,0,1,.14.75,3.22,3.22,0,0,1,0,.43l-.42,3a2.77,2.77,0,0,1-.43,1.19,3.45,3.45,0,0,1-.82.84,3.74,3.74,0,0,1-1.07.5,4,4,0,0,1-1.17.18,3.56,3.56,0,0,1-1.13-.18,2.6,2.6,0,0,1-.93-.5,2.31,2.31,0,0,1-.6-.84,2.11,2.11,0,0,1-.14-.77,3.19,3.19,0,0,1,0-.42l.43-3a2.7,2.7,0,0,1,.43-1.18,3.36,3.36,0,0,1,.83-.85,4.06,4.06,0,0,1,1.07-.51A4.43,4.43,0,0,1,259.82,3Zm-.17,1.16a2.35,2.35,0,0,0-.69.1,2.5,2.5,0,0,0-.64.3,1.9,1.9,0,0,0-.5.48,1.71,1.71,0,0,0-.26.67l-.46,3.06a2,2,0,0,0,0,.24,1,1,0,0,0,.08.42,1.22,1.22,0,0,0,.38.46,1.67,1.67,0,0,0,.57.27,3,3,0,0,0,.67.08,3.07,3.07,0,0,0,.67-.08,2.17,2.17,0,0,0,.64-.27,1.65,1.65,0,0,0,.49-.46,1.62,1.62,0,0,0,.27-.66l.45-3.06a2.12,2.12,0,0,0,0-.24,1.13,1.13,0,0,0-.1-.44,1.26,1.26,0,0,0-.36-.47,1.82,1.82,0,0,0-.57-.3A2.05,2.05,0,0,0,259.65,4.13Zm-.9-1.91L260.29.09H262l-1.89,2.13Z"/><path class="cls-1" d="M267.82,3a3.67,3.67,0,0,1,1.1.17,2.58,2.58,0,0,1,.91.49,2.06,2.06,0,0,1,.57.83,2.19,2.19,0,0,1,.12.75,3.19,3.19,0,0,1,0,.42l-.77,5.6h-1.23l.78-5.65a1.5,1.5,0,0,0,0-.2,1.19,1.19,0,0,0-.08-.44,1.18,1.18,0,0,0-.36-.46,1.66,1.66,0,0,0-.55-.27,2.74,2.74,0,0,0-.64-.08,4.74,4.74,0,0,0-1.07.12,7.14,7.14,0,0,0-.88.24l-.94,6.74h-1.25l1-7.59c.55-.17,1.1-.33,1.65-.47A7.09,7.09,0,0,1,267.82,3Z"/><path class="cls-1" d="M279.72,1.25a3.08,3.08,0,0,0-.8.1,3.91,3.91,0,0,0-.82.33,3.22,3.22,0,0,0-.7.51,2.65,2.65,0,0,0-.54.67l-1.08-.48a4.47,4.47,0,0,1,.79-1,4.61,4.61,0,0,1,1-.74A5.33,5.33,0,0,1,280,0a3.8,3.8,0,0,1,1.43.26,3.18,3.18,0,0,1,1.07.69,2.42,2.42,0,0,1,.61,1,2.21,2.21,0,0,1,.14.8,2.69,2.69,0,0,1,0,.4,3.77,3.77,0,0,1-.56,1.42,6.29,6.29,0,0,1-1.2,1.4l-4.56,4h5.38l-.17,1.28h-7.22l-.29-.94,6-5.22A3.47,3.47,0,0,0,282,3.13c0-.09,0-.16,0-.24a1.42,1.42,0,0,0-.48-1.06,2.53,2.53,0,0,0-1.66-.58Z"/><path class="cls-1" d="M284,8.63a3.13,3.13,0,0,1,.05-.5l.7-4.88a3.16,3.16,0,0,1,.57-1.45,4,4,0,0,1,1.08-1A4.78,4.78,0,0,1,287.79.2a5.75,5.75,0,0,1,1.45-.2,5,5,0,0,1,1.39.2,3.5,3.5,0,0,1,1.21.59,2.6,2.6,0,0,1,.78,1,2.19,2.19,0,0,1,.19.94,3,3,0,0,1-.05.51l-.7,4.88a3.39,3.39,0,0,1-.57,1.46,4.28,4.28,0,0,1-1.07,1,4.75,4.75,0,0,1-1.36.59,5.67,5.67,0,0,1-1.44.2,5.15,5.15,0,0,1-1.4-.2A3.65,3.65,0,0,1,285,10.6a2.67,2.67,0,0,1-.78-1A2.26,2.26,0,0,1,284,8.63Zm1.31-.23a1.32,1.32,0,0,0,.14.62,1.54,1.54,0,0,0,.55.61,2.46,2.46,0,0,0,.83.34,4.23,4.23,0,0,0,.94.1,4.45,4.45,0,0,0,.95-.1,3.22,3.22,0,0,0,.91-.34,2.5,2.5,0,0,0,.73-.61,1.82,1.82,0,0,0,.38-.92l.72-4.82c0-.1,0-.2,0-.31a1.21,1.21,0,0,0-.14-.62,1.51,1.51,0,0,0-.54-.61,2.44,2.44,0,0,0-.83-.32,4.08,4.08,0,0,0-.93-.11,4.64,4.64,0,0,0-1,.11,3.07,3.07,0,0,0-.91.32,2.53,2.53,0,0,0-.73.61,1.86,1.86,0,0,0-.38.93l-.72,4.82C285.34,8.21,285.33,8.3,285.33,8.4Z"/><path class="cls-1" d="M295,11.23,296.37,2l-1.8,1.67-.86-.78,3-2.75h1.19l-1.6,11.07Z"/><path class="cls-1" d="M302.21,10.1a4.79,4.79,0,0,0,1.06-.12,3.5,3.5,0,0,0,1-.38,2.39,2.39,0,0,0,.72-.62,1.87,1.87,0,0,0,.36-.88l.27-1.94a2.94,2.94,0,0,1-1.42,1,3.75,3.75,0,0,1-.79.18,7.11,7.11,0,0,1-.78,0,5,5,0,0,1-1.46-.21,3.5,3.5,0,0,1-1.2-.62,2.67,2.67,0,0,1-.78-1,2.62,2.62,0,0,1-.17-.94,3.59,3.59,0,0,1,0-.47l.11-.83a3.06,3.06,0,0,1,.54-1.42,4,4,0,0,1,1.06-1A4.61,4.61,0,0,1,302.1.2a6.18,6.18,0,0,1,1.53-.2,5.49,5.49,0,0,1,1.47.2,3.26,3.26,0,0,1,1.22.61,2.62,2.62,0,0,1,.78,1,2.27,2.27,0,0,1,.19,1,3.64,3.64,0,0,1,0,.45l-.67,4.85A3.23,3.23,0,0,1,306,9.54a3.75,3.75,0,0,1-1.08,1,4.7,4.7,0,0,1-1.41.62,5.76,5.76,0,0,1-1.53.21,4.83,4.83,0,0,1-1.15-.14,4.19,4.19,0,0,1-1-.41,3.18,3.18,0,0,1-.83-.67,3.24,3.24,0,0,1-.54-.94l1.26-.6a1.79,1.79,0,0,0,.92,1.11A3.28,3.28,0,0,0,302.21,10.1Zm-1.94-5.72a1.4,1.4,0,0,0,.12.58,1.7,1.7,0,0,0,.54.62,2.43,2.43,0,0,0,.83.38,4.11,4.11,0,0,0,1,.12A4.79,4.79,0,0,0,303.83,6a3.16,3.16,0,0,0,1-.38A2.48,2.48,0,0,0,305.5,5a2,2,0,0,0,.37-.88l.11-.76a2.36,2.36,0,0,0,0-.25,1.67,1.67,0,0,0-.12-.65,1.61,1.61,0,0,0-.55-.61,2.74,2.74,0,0,0-.85-.37,4.34,4.34,0,0,0-1-.13,4.71,4.71,0,0,0-1.05.13,3.48,3.48,0,0,0-.93.37,2.64,2.64,0,0,0-.7.63,1.76,1.76,0,0,0-.35.88l-.11.76A1.69,1.69,0,0,0,300.27,4.38Z"/><path class="cls-1" d="M315.87,7.21h-4.08L312,5.93h4.09Z"/><path class="cls-1" d="M321.58,1.25a3,3,0,0,0-.79.1,3.78,3.78,0,0,0-.83.33,3.48,3.48,0,0,0-.7.51,3.18,3.18,0,0,0-.54.67l-1.08-.48a4.47,4.47,0,0,1,.79-1,4.92,4.92,0,0,1,1-.74,4.8,4.8,0,0,1,1.18-.45A5,5,0,0,1,321.9,0a3.8,3.8,0,0,1,1.43.26,3,3,0,0,1,1.06.69,2.45,2.45,0,0,1,.62,1,2.45,2.45,0,0,1,.14.8,2.69,2.69,0,0,1,0,.4,3.77,3.77,0,0,1-.56,1.42A6.34,6.34,0,0,1,323.35,6l-4.55,4h5.38L324,11.23h-7.23l-.28-.94,6-5.22a3.39,3.39,0,0,0,1.28-1.94,2.12,2.12,0,0,0,0-.24,1.43,1.43,0,0,0-.49-1.06,2.51,2.51,0,0,0-1.66-.58Z"/><path class="cls-1" d="M325.88,8.63a3.13,3.13,0,0,1,.05-.5l.7-4.88a3.29,3.29,0,0,1,.58-1.45,3.72,3.72,0,0,1,1.08-1A4.78,4.78,0,0,1,329.66.2a5.75,5.75,0,0,1,1.45-.2,5.08,5.08,0,0,1,1.39.2,3.5,3.5,0,0,1,1.21.59,2.6,2.6,0,0,1,.78,1,2.35,2.35,0,0,1,.18.94,3,3,0,0,1,0,.51l-.71,4.88a3.16,3.16,0,0,1-.57,1.46,4.24,4.24,0,0,1-1.06,1,4.88,4.88,0,0,1-1.36.59,5.75,5.75,0,0,1-1.45.2,5.2,5.2,0,0,1-1.4-.2,3.59,3.59,0,0,1-1.21-.59,2.67,2.67,0,0,1-.78-1A2.12,2.12,0,0,1,325.88,8.63Zm1.32-.23a1.32,1.32,0,0,0,.14.62,1.47,1.47,0,0,0,.55.61,2.41,2.41,0,0,0,.82.34,4.36,4.36,0,0,0,.94.1,4.47,4.47,0,0,0,1-.1,3.34,3.34,0,0,0,.91-.34,2.34,2.34,0,0,0,.72-.61,1.74,1.74,0,0,0,.38-.92l.73-4.82c0-.1,0-.2,0-.31a1.32,1.32,0,0,0-.14-.62,1.61,1.61,0,0,0-.55-.61,2.38,2.38,0,0,0-.82-.32,4.22,4.22,0,0,0-.93-.11,4.64,4.64,0,0,0-1,.11,3.24,3.24,0,0,0-.92.32,2.49,2.49,0,0,0-.72.61,1.87,1.87,0,0,0-.39.93l-.72,4.82C327.2,8.21,327.2,8.3,327.2,8.4Z"/><path class="cls-1" d="M340.1,1.25a3.08,3.08,0,0,0-.8.1,3.91,3.91,0,0,0-.82.33,3.48,3.48,0,0,0-.7.51,2.65,2.65,0,0,0-.54.67l-1.08-.48a4.47,4.47,0,0,1,.79-1,4.92,4.92,0,0,1,1-.74,4.8,4.8,0,0,1,1.18-.45A4.89,4.89,0,0,1,340.41,0a3.85,3.85,0,0,1,1.44.26,3.14,3.14,0,0,1,1.06.69,2.45,2.45,0,0,1,.62,1,2.45,2.45,0,0,1,.14.8,1.81,1.81,0,0,1,0,.4,3.77,3.77,0,0,1-.56,1.42,6,6,0,0,1-1.2,1.4l-4.55,4h5.38l-.17,1.28H335.3l-.28-.94,6-5.22a3.41,3.41,0,0,0,1.29-1.94,2,2,0,0,0,0-.24,1.42,1.42,0,0,0-.48-1.06,2.53,2.53,0,0,0-1.66-.58Z"/><path class="cls-1" d="M347.78,10.07a4.44,4.44,0,0,0,1-.12,3.5,3.5,0,0,0,.91-.38,2.37,2.37,0,0,0,.68-.62,1.9,1.9,0,0,0,.36-.9,2.8,2.8,0,0,0,.05-.48,1.52,1.52,0,0,0-.44-1.17,2.31,2.31,0,0,0-1.64-.52h-1.14l.15-1.13h1.08a2.41,2.41,0,0,0,1.45-.43A1.89,1.89,0,0,0,351,3a2.53,2.53,0,0,0,0-.28,1.31,1.31,0,0,0-.08-.5,1.21,1.21,0,0,0-.41-.51,1.67,1.67,0,0,0-.66-.3,3.44,3.44,0,0,0-.8-.1,3.84,3.84,0,0,0-1.48.3,2.58,2.58,0,0,0-1.18,1l-1-.58a3.59,3.59,0,0,1,.74-.86A4.76,4.76,0,0,1,347,.5a4.8,4.8,0,0,1,1-.38A4.94,4.94,0,0,1,349.14,0a4.13,4.13,0,0,1,1.28.19,2.79,2.79,0,0,1,1.05.56,2.38,2.38,0,0,1,.67.94,2.24,2.24,0,0,1,.15.84,3.89,3.89,0,0,1,0,.47,3.53,3.53,0,0,1-.47,1.3,2.28,2.28,0,0,1-1.12,1,2.05,2.05,0,0,1,.73.45,2.08,2.08,0,0,1,.47.67,2.67,2.67,0,0,1,.19.81c0,.11,0,.23,0,.34s0,.36,0,.55a3.45,3.45,0,0,1-.57,1.45,3.88,3.88,0,0,1-1.06,1,4.47,4.47,0,0,1-1.37.62,5.47,5.47,0,0,1-1.49.21,5.06,5.06,0,0,1-1.17-.14,4.29,4.29,0,0,1-1.06-.43,3.62,3.62,0,0,1-.86-.7,2.83,2.83,0,0,1-.56-1l1.25-.56a2.2,2.2,0,0,0,.4.66,2.36,2.36,0,0,0,.61.47,3.21,3.21,0,0,0,.77.28A4,4,0,0,0,347.78,10.07Z"/></g></g></svg>