<svg id="Capa_1" data-name="Capa 1" xmlns="http://www.w3.org/2000/svg" xmlns:xlink="http://www.w3.org/1999/xlink" viewBox="0 0 1500 800"><defs><style>.cls-1{fill:none;}.cls-2{clip-path:url(#clip-path);}.cls-3{opacity:0.2;}.cls-4{fill:#334155;}.cls-5{clip-path:url(#clip-path-2);}.cls-6{fill:#11182a;}.cls-7{fill:#50627c;}.cls-8{fill:#5a697a;}.cls-9{fill:#37517f;}.cls-10{fill:#425b7a;}.cls-11{fill:url(#Degradado_sin_nombre_11);}.cls-12{fill:url(#Degradado_sin_nombre_11-2);}.cls-13{fill:#fff;}</style><clipPath id="clip-path"><rect id="SVGID" class="cls-1" x="-1520" width="1500" height="800"/></clipPath><clipPath id="clip-path-2"><rect id="SVGID-2" data-name="SVGID" class="cls-1" width="1500" height="800"/></clipPath><linearGradient id="Degradado_sin_nombre_11" x1="738.38" y1="552.53" x2="836.17" y2="552.53" gradientTransform="matrix(1, 0, 0, -1, 0, 862.56)" gradientUnits="userSpaceOnUse"><stop offset="0" stop-color="#385483"/><stop offset="1" stop-color="#242841"/></linearGradient><linearGradient id="Degradado_sin_nombre_11-2" x1="728.64" y1="535.54" x2="808.3" y2="615.2" xlink:href="#Degradado_sin_nombre_11"/></defs><g class="cls-2"><g class="cls-3"><path class="cls-4" d="M-49.5,401.06H-255.16a63.12,63.12,0,0,0-63.11,63.11V669.83a63.12,63.12,0,0,0,63.11,63.11H-49.5a63.12,63.12,0,0,0,63.11-63.11V464.17A63.12,63.12,0,0,0-49.5,401.06ZM-129.32,607h-31.43V565c7.09,0,14.31.23,21.51,0,23.36-.87,38.08-19.43,31.3-39.52-4.09-12.13-13.33-19.13-25.54-20.23-13.43-1.2-27.06-.27-41.79-.27V671.24h-51v-208c2.77-.17,5.35-.46,7.92-.46,31.3,0,62.6-.11,93.9,0,37.95.14,67.36,28.24,69.36,66.08C-52.61,576-82,607-129.32,607Z"/></g></g><g class="cls-5"><rect class="cls-6" width="1500" height="800"/><path class="cls-7" d="M682.24,311.9s1.7,3.46,2,4,1.27,1.66-.81,1.71-4.78.21-5.29.25-1,.35-1.83-1.71-1-2.84-1-2.84-1.06-1.86.45-1.89,3.4-.25,3.89-.27S681.71,310.82,682.24,311.9Z"/><path class="cls-7" d="M699.55,332.81a89.48,89.48,0,0,0,8.74,6.84c2.26,1.28,2.06,1.14-.4,1.89-4.3,1.22-7.33.43-12.76-2.71a86.81,86.81,0,0,1-6.72-5.65c3.63-.2,3.39-.11,5.07-.19C696.3,333.07,698.82,332.18,699.55,332.81Z"/><path class="cls-7" d="M713.71,344.58s5.68,2.36,9,4c2.35,1.05,2.14.93-.25,1.95s-6.11,1.13-11.78-1.46a57.66,57.66,0,0,1-6.07-4.12l4.88-.37A14,14,0,0,1,713.71,344.58Z"/><path class="cls-7" d="M687.69,320.89s6,6.22,6.5,6.8,1.77,1.72-.54,2.15a39.43,39.43,0,0,1-7.67.46c-.6,0-1.27.35-2.66-1.75s-4.11-5.54-4.11-5.54-1.68-2,.09-2.26c2.13-.29,4-.22,5.23-.36C685.11,320.32,687.07,320.25,687.69,320.89Z"/><path class="cls-8" d="M670.32,314s1.51,3.08,1.79,3.6,1.13,1.46-.72,1.52-4.26.18-4.7.22-.94.31-1.63-1.52-.92-2.54-.92-2.54-.93-1.64.41-1.67,3-.22,3.46-.25S669.84,313,670.32,314Z"/><path class="cls-8" d="M686.38,334.48a79.38,79.38,0,0,0,7.28,6.62c1.92,1.29,1.75,1.15-.45,1.64-3.85.75-6.45-.16-11-3.31A74.28,74.28,0,0,1,676.6,334c3.19.1,3,.15,4.46.2C683.51,334.47,685.77,333.88,686.38,334.48Z"/><path class="cls-8" d="M698.7,345.53s5.83,2.69,8.26,3.94c1.69.82,1.54.73-.22,1.4s-4.47.69-8.56-1.32a69.79,69.79,0,0,1-6.08-4c2.42-.11,2.32-.15,3.56-.16A10.94,10.94,0,0,1,698.7,345.53Z"/><path class="cls-8" d="M674.84,323.09s4.34,4.91,4.71,5.37,1.28,1.37-.48,1.61a27.71,27.71,0,0,1-5.83-.1c-.45-.05-1,.37-1.94-1.27s-2.95-4.34-2.95-4.34-1.21-1.59.14-1.7c1.62-.13,3,0,4-.07C672.91,322.56,674.39,322.58,674.84,323.09Z"/><path class="cls-9" d="M705.61,305.68s3.44,4.42,4,5,1.9,1.52-.48,2.23-5.51,1.78-6.08,2-1.14.73-2.55-1.4-2.52-3.94-2.52-3.94-1.69-1.82,0-2.33,4.14-1.3,4.71-1.49S704.71,304.57,705.61,305.68Z"/><path class="cls-9" d="M713.54,314.7s5.67,5,6.31,5.5,2.24,1.6-.23,2.43-5.83,2-6.44,2.33-1.27.85-3.1-1.13a44.74,44.74,0,0,0-5.11-4.42s-2.07-1.6-.27-2.43,4.77-1.85,5.34-2.15S712.42,313.69,713.54,314.7Z"/><path class="cls-9" d="M725.68,324.41s10.15,5.92,10.79,6.44,2.12,1.24-.23,2.43c-2.62,1.32-4.64,2.42-5.75,2.84-.62.24-.62.24-3.09-1.13-2.28-1.26-10.3-5.87-10.3-5.87s-2.8-1.7-1-2.55a40.78,40.78,0,0,1,6.09-2.06A6.48,6.48,0,0,1,725.68,324.41Z"/><path class="cls-10" d="M731.15,340.05a31,31,0,0,1,4.1.62c.7.28,2.11.27.37,2.27s-3.4,3.62-3.83,4.08-1.61,1.52-3.8.49c-2.73-1.27-7.55-3.62-7.55-3.62a23.67,23.67,0,0,1-2.08-1.17c1.79-.41,5.55-1.54,6.1-1.75A14.34,14.34,0,0,1,731.15,340.05Z"/><path class="cls-10" d="M694.76,310s2.73,4.37,3.15,4.94,1.58,1.56-.65,1.94-5.1,1-5.63,1.13-1.09.54-2.18-1.53-2-3.82-2-3.82-1.37-1.81.25-2.09,3.83-.73,4.37-.83S694,308.88,694.76,310Z"/><path class="cls-10" d="M701.57,319.44s4.86,5.13,5.43,5.66,1.89,1.56-.28,2.33-4.82,1.57-5.79,1.88c-.57.18-1.15.75-2.71-1.26s-4.58-5.23-4.58-5.23-1.84-1.89-.16-2.38c2-.58,3.78-.77,5-1.09C699,319.2,700.91,318.86,701.57,319.44Z"/><path class="cls-10" d="M712.79,329.27s11,6.68,11.65,7.21,2.1,1.29-.27,2.42a37.11,37.11,0,0,1-5.95,1.94c-.63.22-1.42.36-3.86-1.07-2.24-1.34-9.27-6.13-9.27-6.13s-2.76-1.77-1-2.58a35.23,35.23,0,0,1,5.18-1.79A6.55,6.55,0,0,1,712.79,329.27Z"/><path class="cls-11" d="M836.17,275s-34.59,44.66-96.08,43.29c0,0,3.1,14.87-1.71,26.75C738.4,345.05,803.38,318.94,836.17,275Z"/><path class="cls-12" d="M761.49,240.48S794.21,276,834.9,274c0,0-33.71,42.92-95.23,42.95,0,0-1.32-.61-1.65.63s.65,8.38.71,8.81.72,3.78-1.48,2.16-23.58-12.62-30.65-25.09C706.6,303.42,743.77,294.38,761.49,240.48Z"/><path class="cls-13" d="M771.74,271.8c1.46-1,2.83-2.08,4.16-3.18a.2.2,0,0,1,.25,0c.51.35,1,.69,1.54,1a.23.23,0,0,1,0,.32s0,0,0,.05a69.73,69.73,0,0,1-8.46,5.92.24.24,0,0,1-.28,0c-.59-.43-1.16-.86-1.73-1.31a.21.21,0,0,1-.05-.3h0c.89-1.21,1.75-2.45,2.57-3.7a.22.22,0,0,0-.07-.31.21.21,0,0,0-.23,0q-2.09,1.27-4.32,2.43a.25.25,0,0,1-.26,0c-.55-.49-1.08-.93-1.6-1.4a.23.23,0,0,1,0-.31,90.85,90.85,0,0,0,5.77-7.63.21.21,0,0,1,.28-.06h0c.42.38.85.76,1.29,1.12a.24.24,0,0,1,0,.32c-.9,1.29-1.83,2.59-2.81,3.88a.23.23,0,0,0,0,.32.23.23,0,0,0,.26,0q2.25-1.36,4.32-2.86a.21.21,0,0,1,.24,0l1.24.94a.24.24,0,0,1,.06.31q-1.22,2.1-2.56,4.17a.22.22,0,0,0,.08.31A.23.23,0,0,0,771.74,271.8Z"/><path class="cls-13" d="M778.43,278.57c.36-.39.33-.86-.12-1.44-.25-.32-.48-.64-.74-1-1-1.4-1.1-2.6-.4-3.57a2.67,2.67,0,0,1,1.25-1,3.46,3.46,0,0,1,1.72-.14,5.82,5.82,0,0,1,1.9.67,3.59,3.59,0,0,1,1.7,1.86,2.69,2.69,0,0,1-.13,2.15.25.25,0,0,1-.33.1c-.57-.28-1.13-.57-1.69-.86a.22.22,0,0,1-.1-.29,1.13,1.13,0,0,0,.13-.72,1,1,0,0,0-.58-.72,1.93,1.93,0,0,0-1-.27,1.1,1.1,0,0,0-.85.39c-.31.34-.21.83.31,1.46a14.26,14.26,0,0,1,1.11,1.45,2.55,2.55,0,0,1,0,3,2.77,2.77,0,0,1-1.34,1,3.57,3.57,0,0,1-1.86.14,5.49,5.49,0,0,1-2-.77,4.76,4.76,0,0,1-1.21-1,3,3,0,0,1-.63-1.22,2.75,2.75,0,0,1,.45-2.31.23.23,0,0,1,.33-.06l1.62,1a.21.21,0,0,1,.09.29h0a1.17,1.17,0,0,0,.53,1.87,1.82,1.82,0,0,0,1,.29A1.26,1.26,0,0,0,778.43,278.57Z"/><path class="cls-13" d="M788.6,282c-1.18-.45-2.33-.93-3.46-1.43a.28.28,0,0,0-.32.07c-.81,1-1.66,2-2.54,2.95a.29.29,0,0,1-.33.06c-.64-.3-1.27-.61-1.9-.93a.21.21,0,0,1-.11-.28l0-.06a78.07,78.07,0,0,0,6.43-7.76.23.23,0,0,1,.29-.08c1.9.85,3.89,1.63,5.9,2.34a.21.21,0,0,1,.14.27.08.08,0,0,1,0,.05l-.82,1.26a.28.28,0,0,1-.31.09c-1.27-.45-2.53-.94-3.76-1.46a.26.26,0,0,0-.3.08c-.39.53-.77,1.05-1.17,1.57a.21.21,0,0,0,0,.3s0,0,.05,0c1.08.46,2.16.9,3.27,1.32a.2.2,0,0,1,.14.26l0,.07-.9,1.21A.28.28,0,0,1,788.6,282Z"/><path class="cls-13" d="M791.67,285.4a.2.2,0,0,1-.12-.26l0-.05c.43-.57.85-1.14,1.25-1.72a.29.29,0,0,1,.32-.1h0l1.07.33c.38-.53.74-1.07,1.1-1.61l-1-.3a.22.22,0,0,1-.15-.26l0-.07c.34-.48.66-1,1-1.49a.28.28,0,0,1,.29-.11h0l1.23.35,1-1.71-1-.29-.23-.07c-.8-.23-1.59-.49-2.37-.73a.27.27,0,0,0-.3.11,85.09,85.09,0,0,1-6,8.36.2.2,0,0,0,0,.29l.08,0c.81.31,1.64.61,2.47.89l.07,0,1.23.41c.41-.55.83-1.1,1.23-1.65Z"/><path class="cls-13" d="M800.68,279.13l-1.06-.25c-.33.58-.66,1.16-1,1.74l1.15.28a.29.29,0,0,0,.31-.12c.25-.45.48-.89.75-1.33a.2.2,0,0,0-.09-.29Z"/><path class="cls-13" d="M798.31,280.55c.34-.58.67-1.16,1-1.74l-1.31-.33-1,1.72Z"/><path class="cls-13" d="M796,286.69l-1.11-.31-1.21,1.68,1.2.35a.34.34,0,0,0,.34-.11c.31-.43.62-.85.91-1.29a.2.2,0,0,0,0-.28Z"/><path class="cls-13" d="M793.17,285.88c-.4.56-.81,1.11-1.22,1.66l1.37.43c.41-.56.82-1.12,1.21-1.68Z"/><path class="cls-13" d="M798.31,282.8l-1.09-.28c-.35.55-.7,1.1-1.06,1.64l1.17.31a.29.29,0,0,0,.32-.1l.81-1.25a.22.22,0,0,0-.08-.29Z"/><path class="cls-13" d="M794.52,283.69l1.34.39,1.07-1.63-1.33-.37C795.25,282.62,794.91,283.14,794.52,283.69Z"/><path class="cls-13" d="M687.89,526.33,698,492.28a1.37,1.37,0,0,1,1.29-1.07h11.47a1.52,1.52,0,0,1,1.38,1.65,1.89,1.89,0,0,1-.1.41l-21,65.21a1.4,1.4,0,0,1-1.29,1H677.27a1.45,1.45,0,0,1-1.36-1.43L674,527.73a1.35,1.35,0,0,0-2.64-.44L660.82,558.5a1.38,1.38,0,0,1-1.28,1H647.05a1.44,1.44,0,0,1-1.33-1.42l-2.93-65.21a1.47,1.47,0,0,1,1.31-1.61h11.14a1.45,1.45,0,0,1,1.36,1.5l.65,32.86a1.35,1.35,0,0,0,2.64.5L671,492.25a1.4,1.4,0,0,1,1.28-1h9.88a1.44,1.44,0,0,1,1.35,1.45l1.76,33.25A1.34,1.34,0,0,0,687.89,526.33Z"/><path class="cls-13" d="M742.27,540.48q.88-5.15-4.93-8l-6.61-3.09q-13.92-7.06-13.24-19.21a18.22,18.22,0,0,1,3.39-9.89,20.32,20.32,0,0,1,8.61-6.76,28.53,28.53,0,0,1,12-2.32q8.73.18,14,5.73,4.85,5.08,5.2,13.3a1.46,1.46,0,0,1-1.33,1.58h-11a1.41,1.41,0,0,1-1.35-1.39,9.31,9.31,0,0,0-1.42-4.73q-1.56-2.3-5.11-2.39a9.8,9.8,0,0,0-6.13,1.82,7.44,7.44,0,0,0-3.15,5.14q-.76,4.56,6,7.47a61.87,61.87,0,0,1,9.83,5q9.64,6.51,9,17.56a19.36,19.36,0,0,1-3.27,10.06,19.12,19.12,0,0,1-8.17,6.69,27.19,27.19,0,0,1-11.7,2.27,25.41,25.41,0,0,1-8.84-1.68,19.07,19.07,0,0,1-7-4.64q-5.44-5.67-5.69-14.61a1.47,1.47,0,0,1,1.37-1.54h0l11.09,0a1.43,1.43,0,0,1,1.36,1.45,10.45,10.45,0,0,0,1.76,6.27q2,2.61,6.66,2.61a9.19,9.19,0,0,0,5.79-1.8A7.62,7.62,0,0,0,742.27,540.48Z"/><path class="cls-13" d="M800.83,532.33H780.28a1.41,1.41,0,0,0-1.34,1.27l-3.81,24.65a1.41,1.41,0,0,1-1.34,1.27H762.32a1.48,1.48,0,0,1-1.37-1.59l0-.2,10-65.21a1.43,1.43,0,0,1,1.34-1.28H809a1.51,1.51,0,0,1,1.38,1.61l0,.2-1.48,9.63a1.43,1.43,0,0,1-1.35,1.27H784.65a1.44,1.44,0,0,0-1.35,1.28l-1.93,12.63a1.47,1.47,0,0,0,1.14,1.77.64.64,0,0,0,.2,0H802.3a1.51,1.51,0,0,1,1.37,1.61l0,.19-1.48,9.59A1.43,1.43,0,0,1,800.83,532.33Z"/><path class="cls-13" d="M823.92,546.82a1.5,1.5,0,0,1-1.16-1.76l2.06-13.25a1.44,1.44,0,0,1,1.35-1.27h6l1.89-12.2h-5.6a1.49,1.49,0,0,1-1.33-1.64.77.77,0,0,1,0-.15l1.77-11.3a1.41,1.41,0,0,1,1.21-1.24h7.16l1.91-12.71H817.93a1.42,1.42,0,0,0-1.34,1.27l-10,65.16a1.5,1.5,0,0,0,1.15,1.77l.2,0h20.71l1.91-12.7Z"/><path class="cls-13" d="M855.82,491.24h-6L848,504h6.37a1.41,1.41,0,0,0,1.34-1.27l1.5-9.63a1.5,1.5,0,0,0-1.14-1.78Z"/><polygon class="cls-13" points="846.3 503.95 848.2 491.24 840.79 491.24 838.91 503.95 846.3 503.95"/><path class="cls-13" d="M847.21,546.82h-6l-1.87,12.7h6.36a1.43,1.43,0,0,0,1.35-1.27l1.5-9.64a1.48,1.48,0,0,0-1.15-1.76Z"/><polygon class="cls-13" points="832.17 546.82 830.29 559.52 837.68 559.52 839.59 546.82 832.17 546.82"/><path class="cls-13" d="M850.67,518.34h-6l-1.87,12.19h6.36a1.4,1.4,0,0,0,1.34-1.22l1.49-9.24a1.45,1.45,0,0,0-1.14-1.7Z"/><polygon class="cls-13" points="833.76 530.56 841.15 530.56 843.06 518.37 835.64 518.37 833.76 530.56"/><g class="cls-3"><rect class="cls-4" x="1202.23" y="401.06" width="331.88" height="331.88" rx="63.11"/><path class="cls-6" d="M1345.23,671.24h-51v-208c2.78-.17,5.35-.46,7.92-.46,31.3,0,62.6-.11,93.9,0,38,.13,67.37,28.24,69.36,66.08,2.49,47.09-26.94,78.05-74.22,78.08h-31.43V565c7.09,0,14.31.23,21.51,0,23.37-.87,38.08-19.43,31.3-39.53-4.09-12.12-13.33-19.13-25.53-20.22-13.44-1.21-27.07-.28-41.8-.28Z"/><path class="cls-4" d="M49.78,87H387.93A103.78,103.78,0,0,1,491.71,190.78V528.93A103.77,103.77,0,0,1,387.93,632.71H49.77A103.77,103.77,0,0,1-54,528.93V190.78A103.78,103.78,0,0,1,49.78,87Z"/><path class="cls-6" d="M181.13,531.25H97.26V189.31c4.56-.28,8.79-.76,13-.76,51.47-.05,102.93-.18,154.4,0,62.4.22,110.77,46.43,114.05,108.66,4.09,77.43-44.3,128.34-122,128.39H205v-69c11.66,0,23.54.37,35.38-.07,38.42-1.43,62.61-31.95,51.46-65-6.73-19.93-21.92-31.46-42-33.26-22.1-2-44.51-.45-68.73-.45Z"/></g></g></svg>