<svg id="Capa_1" data-name="Capa 1" xmlns="http://www.w3.org/2000/svg" xmlns:xlink="http://www.w3.org/1999/xlink" viewBox="0 0 1500 800"><defs><style>.cls-1{fill:none;}.cls-2{clip-path:url(#clip-path);}.cls-3{fill:#fff;}.cls-4{fill:#50627c;}.cls-5{fill:#5a697a;}.cls-6{fill:#37517f;}.cls-7{fill:#425b7a;}.cls-8{fill:url(#Degradado_sin_nombre_11);}.cls-9{fill:url(#Degradado_sin_nombre_12);}.cls-10{fill:url(#Degradado_sin_nombre);}.cls-11{fill:url(#Degradado_sin_nombre_2);}.cls-12{fill:url(#Degradado_sin_nombre_3);}.cls-13{fill:url(#Degradado_sin_nombre_4);}.cls-14{fill:url(#Degradado_sin_nombre_5);}.cls-15{fill:url(#Degradado_sin_nombre_6);}.cls-16{fill:url(#Degradado_sin_nombre_7);}.cls-17{fill:url(#Degradado_sin_nombre_8);}.cls-18{fill:url(#Degradado_sin_nombre_9);}.cls-19{fill:url(#Degradado_sin_nombre_10);}.cls-20{opacity:0.2;}.cls-21{fill:#334155;}.cls-22{clip-path:url(#clip-path-2);}</style><clipPath id="clip-path"><rect id="SVGID" class="cls-1" width="1500" height="800"/></clipPath><linearGradient id="Degradado_sin_nombre_11" x1="738.38" y1="552.53" x2="836.17" y2="552.53" gradientTransform="matrix(1, 0, 0, -1, 0, 862.56)" gradientUnits="userSpaceOnUse"><stop offset="0" stop-color="#385483"/><stop offset="1" stop-color="#242841"/></linearGradient><linearGradient id="Degradado_sin_nombre_12" x1="728.63" y1="535.54" x2="808.3" y2="615.19" xlink:href="#Degradado_sin_nombre_11"/><linearGradient id="Degradado_sin_nombre" x1="642.78" y1="337.21" x2="712.13" y2="337.21" gradientTransform="matrix(1, 0, 0, -1, 0, 862.56)" gradientUnits="userSpaceOnUse"><stop offset="0" stop-color="#262d48"/><stop offset="1" stop-color="#29304c"/></linearGradient><linearGradient id="Degradado_sin_nombre_2" x1="711.36" y1="337.25" x2="760.66" y2="337.25" gradientTransform="matrix(1, 0, 0, -1, 0, 862.56)" gradientUnits="userSpaceOnUse"><stop offset="0.15" stop-color="#272d49"/><stop offset="0.8" stop-color="#29304c"/></linearGradient><linearGradient id="Degradado_sin_nombre_3" x1="760.94" y1="337.18" x2="810.34" y2="337.18" xlink:href="#Degradado_sin_nombre_2"/><linearGradient id="Degradado_sin_nombre_4" x1="806.57" y1="337.15" x2="839.21" y2="337.15" gradientTransform="matrix(1, 0, 0, -1, 0, 862.56)" gradientUnits="userSpaceOnUse"><stop offset="0.15" stop-color="#272d49"/><stop offset="0.8" stop-color="#324160"/></linearGradient><linearGradient id="Degradado_sin_nombre_5" x1="847.97" y1="364.96" x2="857.18" y2="364.96" gradientTransform="matrix(1, 0, 0, -1, 0, 862.56)" gradientUnits="userSpaceOnUse"><stop offset="0.15" stop-color="#3d5578"/><stop offset="0.92" stop-color="#446187"/></linearGradient><linearGradient id="Degradado_sin_nombre_6" x1="838.91" y1="364.96" x2="848.2" y2="364.96" gradientTransform="matrix(1, 0, 0, -1, 0, 862.56)" gradientUnits="userSpaceOnUse"><stop offset="0.15" stop-color="#324160"/><stop offset="0.8" stop-color="#3d5578"/></linearGradient><linearGradient id="Degradado_sin_nombre_7" x1="839.35" y1="309.39" x2="848.56" y2="309.39" xlink:href="#Degradado_sin_nombre_5"/><linearGradient id="Degradado_sin_nombre_8" x1="830.29" y1="309.39" x2="839.58" y2="309.39" xlink:href="#Degradado_sin_nombre_6"/><linearGradient id="Degradado_sin_nombre_9" x1="842.82" y1="338.13" x2="852.03" y2="338.13" xlink:href="#Degradado_sin_nombre_5"/><linearGradient id="Degradado_sin_nombre_10" x1="833.76" y1="338.1" x2="843.05" y2="338.1" xlink:href="#Degradado_sin_nombre_6"/><clipPath id="clip-path-2"><rect id="SVGID-2" data-name="SVGID" class="cls-1" x="1520" width="1500" height="800"/></clipPath></defs><g class="cls-2"><rect class="cls-3" width="1500" height="800"/><path class="cls-4" d="M682.24,311.91s1.7,3.45,2,4,1.28,1.66-.8,1.7-4.78.21-5.29.25-1,.35-1.83-1.71-1-2.84-1-2.84-1.06-1.86.45-1.88,3.4-.26,3.89-.28S681.7,310.82,682.24,311.91Z"/><path class="cls-4" d="M699.55,332.81a89.48,89.48,0,0,0,8.74,6.84c2.26,1.28,2.06,1.14-.4,1.9-4.3,1.21-7.33.42-12.77-2.72a86.81,86.81,0,0,1-6.72-5.65c3.64-.2,3.4-.11,5.08-.19C696.3,333.07,698.81,332.18,699.55,332.81Z"/><path class="cls-4" d="M713.71,344.59s5.67,2.35,9,4c2.36,1.05,2.14.92-.24,1.94-2.54,1.06-6.12,1.13-11.78-1.46a56.64,56.64,0,0,1-6.07-4.12c3.32-.26,3.18-.23,4.88-.37A13.69,13.69,0,0,1,713.71,344.59Z"/><path class="cls-4" d="M687.69,320.89s6,6.22,6.5,6.8,1.76,1.72-.54,2.16a40.23,40.23,0,0,1-7.67.46c-.6-.05-1.28.34-2.66-1.76s-4.11-5.54-4.11-5.54-1.69-2,.09-2.26c2.13-.28,4-.22,5.23-.36C685.11,320.32,687.07,320.25,687.69,320.89Z"/><path class="cls-5" d="M670.31,314s1.51,3.07,1.8,3.59,1.13,1.46-.72,1.52-4.26.19-4.71.22-.93.31-1.62-1.52-.92-2.53-.92-2.53-.93-1.65.41-1.68,3-.22,3.46-.24S669.84,313,670.31,314Z"/><path class="cls-5" d="M686.38,334.48a79.38,79.38,0,0,0,7.28,6.62c1.91,1.29,1.74,1.15-.45,1.64-3.85.75-6.46-.15-11-3.31A76,76,0,0,1,676.6,334c3.19.09,3,.15,4.45.2C683.51,334.47,685.77,333.89,686.38,334.48Z"/><path class="cls-5" d="M698.7,345.53s5.83,2.69,8.25,3.94c1.7.82,1.55.73-.21,1.41s-4.48.69-8.56-1.32a67.81,67.81,0,0,1-6.09-4c2.43-.11,2.32-.15,3.57-.16A11.36,11.36,0,0,1,698.7,345.53Z"/><path class="cls-5" d="M674.84,323.09s4.34,4.92,4.71,5.37,1.28,1.37-.49,1.61a28.3,28.3,0,0,1-5.82-.09c-.45-.06-1,.37-1.94-1.27s-2.95-4.34-2.95-4.34-1.22-1.59.13-1.7c1.63-.14,3,0,4-.08C672.91,322.56,674.39,322.58,674.84,323.09Z"/><path class="cls-6" d="M705.6,305.68s3.45,4.42,4,5,1.9,1.52-.48,2.24-5.51,1.77-6.08,2-1.14.74-2.56-1.4-2.52-3.94-2.52-3.94-1.69-1.81.06-2.33,4.14-1.3,4.71-1.48S704.71,304.58,705.6,305.68Z"/><path class="cls-6" d="M713.54,314.7s5.66,5,6.31,5.5,2.24,1.61-.23,2.43-5.83,2-6.45,2.34-1.26.85-3.09-1.13a45.06,45.06,0,0,0-5.12-4.43s-2.06-1.59-.26-2.43,4.77-1.85,5.34-2.15S712.42,313.69,713.54,314.7Z"/><path class="cls-6" d="M725.67,324.41s10.16,5.93,10.8,6.44,2.12,1.24-.24,2.43c-2.61,1.32-4.64,2.43-5.74,2.84-.63.24-.63.24-3.1-1.13-2.27-1.25-10.29-5.87-10.29-5.87s-2.8-1.7-1-2.55a40.62,40.62,0,0,1,6.08-2.05A6.39,6.39,0,0,1,725.67,324.41Z"/><path class="cls-7" d="M731.15,340.06a32.64,32.64,0,0,1,4.1.61c.7.28,2.11.27.37,2.27s-3.4,3.63-3.83,4.08-1.61,1.52-3.8.49c-2.73-1.27-7.55-3.62-7.55-3.62a23.71,23.71,0,0,1-2.08-1.16c1.79-.42,5.54-1.54,6.1-1.76A14.34,14.34,0,0,1,731.15,340.06Z"/><path class="cls-7" d="M694.75,310s2.74,4.36,3.16,4.93,1.58,1.57-.65,1.94-5.1,1-5.64,1.14-1.08.53-2.18-1.54-1.94-3.81-1.94-3.81-1.37-1.82.24-2.1,3.84-.72,4.37-.83S694,308.88,694.75,310Z"/><path class="cls-7" d="M701.57,319.45s4.86,5.12,5.43,5.65,1.89,1.56-.28,2.33-4.82,1.58-5.8,1.89c-.56.18-1.15.74-2.7-1.27s-4.58-5.23-4.58-5.23-1.84-1.88-.16-2.37c2-.59,3.78-.77,5-1.1C699,319.2,700.91,318.86,701.57,319.45Z"/><path class="cls-7" d="M712.79,329.27s11,6.68,11.65,7.21,2.1,1.29-.27,2.43a38.53,38.53,0,0,1-5.95,1.94c-.63.22-1.42.35-3.86-1.08-2.24-1.34-9.27-6.13-9.27-6.13s-2.77-1.76-1-2.58a35.23,35.23,0,0,1,5.18-1.79A6.55,6.55,0,0,1,712.79,329.27Z"/><path class="cls-8" d="M836.17,275s-34.59,44.67-96.09,43.29c0,0,3.11,14.87-1.7,26.76C738.39,345.06,803.38,318.94,836.17,275Z"/><path class="cls-9" d="M761.49,240.48S794.21,276,834.9,274c0,0-33.71,42.91-95.23,42.94,0,0-1.32-.61-1.65.63s.65,8.38.7,8.81.72,3.79-1.48,2.17-23.58-12.63-30.64-25.09C706.6,303.42,743.76,294.38,761.49,240.48Z"/><path class="cls-3" d="M771.74,271.81c1.45-1,2.83-2.09,4.15-3.19a.21.21,0,0,1,.26,0c.51.35,1,.69,1.54,1a.24.24,0,0,1,0,.32.12.12,0,0,1,0,.05,69.07,69.07,0,0,1-8.47,5.92.22.22,0,0,1-.27,0c-.59-.42-1.16-.86-1.73-1.31a.21.21,0,0,1-.06-.29h0c.89-1.22,1.75-2.46,2.57-3.7a.23.23,0,0,0-.07-.32.21.21,0,0,0-.23,0q-2.09,1.27-4.32,2.42a.24.24,0,0,1-.27,0c-.54-.49-1.07-.92-1.59-1.4a.22.22,0,0,1,0-.31,89.25,89.25,0,0,0,5.77-7.63.2.2,0,0,1,.27-.06l0,0c.42.37.85.75,1.29,1.12a.23.23,0,0,1,0,.31c-.9,1.3-1.84,2.59-2.81,3.89a.22.22,0,0,0,0,.31.23.23,0,0,0,.26,0q2.25-1.36,4.32-2.86a.21.21,0,0,1,.24,0l1.24.94a.25.25,0,0,1,.06.31c-.81,1.4-1.67,2.79-2.56,4.17a.22.22,0,0,0,.07.31A.23.23,0,0,0,771.74,271.81Z"/><path class="cls-3" d="M778.42,278.57c.37-.38.33-.86-.11-1.43-.25-.32-.48-.64-.75-1-1-1.41-1.09-2.61-.39-3.58a2.64,2.64,0,0,1,1.24-1,3.51,3.51,0,0,1,1.73-.13,5.4,5.4,0,0,1,1.9.67,3.55,3.55,0,0,1,1.7,1.86,2.62,2.62,0,0,1-.14,2.14.23.23,0,0,1-.32.1c-.57-.28-1.13-.56-1.69-.86a.22.22,0,0,1-.1-.29,1.2,1.2,0,0,0,.13-.72,1,1,0,0,0-.59-.72,1.87,1.87,0,0,0-1-.27,1.14,1.14,0,0,0-.85.39c-.31.35-.21.83.31,1.46a12.86,12.86,0,0,1,1.1,1.45,2.55,2.55,0,0,1,.05,3,2.81,2.81,0,0,1-1.34,1,3.71,3.71,0,0,1-1.87.15,5.71,5.71,0,0,1-2-.78,4.6,4.6,0,0,1-1.21-1,3.11,3.11,0,0,1-.64-1.22,2.77,2.77,0,0,1,.46-2.31.24.24,0,0,1,.33-.06c.53.35,1.07.69,1.62,1a.21.21,0,0,1,.09.29h0a1.41,1.41,0,0,0-.27.93,1.39,1.39,0,0,0,.79.93,1.87,1.87,0,0,0,1.05.29A1.22,1.22,0,0,0,778.42,278.57Z"/><path class="cls-3" d="M788.59,282c-1.17-.45-2.32-.93-3.45-1.42a.27.27,0,0,0-.32.06c-.82,1-1.66,2-2.54,3a.29.29,0,0,1-.33.05l-1.91-.92a.23.23,0,0,1-.11-.28.15.15,0,0,1,0-.06,79.6,79.6,0,0,0,6.43-7.77.22.22,0,0,1,.29-.08c1.9.85,3.88,1.64,5.89,2.34a.22.22,0,0,1,.15.27l0,.06-.82,1.25a.27.27,0,0,1-.31.09c-1.28-.45-2.53-.94-3.76-1.46a.25.25,0,0,0-.3.09l-1.17,1.56a.21.21,0,0,0,0,.31l.05,0c1.07.45,2.16.89,3.27,1.31a.22.22,0,0,1,.14.27l0,.06c-.3.41-.6.81-.91,1.21A.28.28,0,0,1,788.59,282Z"/><path class="cls-3" d="M791.67,285.4a.2.2,0,0,1-.12-.26l0-.05c.43-.57.84-1.14,1.25-1.71a.29.29,0,0,1,.32-.11h0l1.07.33c.37-.53.74-1.07,1.09-1.61l-1-.3a.22.22,0,0,1-.15-.26l0-.06c.34-.49.66-1,1-1.5a.26.26,0,0,1,.28-.11h0l1.24.35,1-1.71-1-.29-.24-.07c-.8-.23-1.58-.49-2.37-.72a.24.24,0,0,0-.29.1,84,84,0,0,1-6,8.36.21.21,0,0,0,0,.29.12.12,0,0,0,.08,0c.81.31,1.64.61,2.47.89l.07,0,1.22.4c.42-.54.83-1.09,1.24-1.65Z"/><path class="cls-3" d="M800.67,279.14l-1.06-.26c-.32.59-.65,1.17-1,1.75l1.14.27a.31.31,0,0,0,.32-.12c.25-.44.48-.89.75-1.33a.22.22,0,0,0-.09-.29Z"/><path class="cls-3" d="M798.3,280.55c.34-.58.68-1.16,1-1.74l-1.3-.33-1,1.72Z"/><path class="cls-3" d="M796,286.7l-1.11-.32c-.4.56-.8,1.13-1.21,1.69l1.2.34a.32.32,0,0,0,.34-.11c.31-.42.61-.85.91-1.28a.2.2,0,0,0-.05-.29A.11.11,0,0,0,796,286.7Z"/><path class="cls-3" d="M793.17,285.89c-.41.55-.81,1.1-1.23,1.65l1.37.43c.42-.56.82-1.11,1.22-1.68Z"/><path class="cls-3" d="M798.3,282.81l-1.08-.28c-.35.54-.7,1.09-1.07,1.64l1.17.31a.3.3,0,0,0,.32-.11c.28-.42.55-.83.81-1.25a.21.21,0,0,0-.07-.29Z"/><path class="cls-3" d="M794.52,283.7l1.34.38c.36-.54.72-1.08,1.07-1.63l-1.33-.37C795.25,282.62,794.91,283.15,794.52,283.7Z"/><path class="cls-10" d="M687.89,526.33,698,492.28a1.4,1.4,0,0,1,1.29-1.07h11.47a1.52,1.52,0,0,1,1.37,1.66,1.44,1.44,0,0,1-.09.4l-21,65.21a1.38,1.38,0,0,1-1.28,1H677.27a1.45,1.45,0,0,1-1.36-1.43L674,527.73a1.34,1.34,0,0,0-2.64-.43l-10.53,31.21a1.39,1.39,0,0,1-1.28,1H647.05a1.45,1.45,0,0,1-1.33-1.43l-2.93-65.21a1.47,1.47,0,0,1,1.31-1.61h11.14a1.44,1.44,0,0,1,1.36,1.5l.65,32.85a1.35,1.35,0,0,0,2.64.5L671,492.25a1.38,1.38,0,0,1,1.28-1h9.87a1.44,1.44,0,0,1,1.36,1.44l1.75,33.25A1.35,1.35,0,0,0,687.89,526.33Z"/><path class="cls-11" d="M742.27,540.49q.87-5.15-4.93-8l-6.61-3.09q-13.92-7-13.24-19.21a18.27,18.27,0,0,1,3.39-9.89,20.32,20.32,0,0,1,8.61-6.76,28.53,28.53,0,0,1,12-2.32q8.73.18,14,5.73,4.83,5.08,5.2,13.3a1.46,1.46,0,0,1-1.33,1.58h-11a1.42,1.42,0,0,1-1.35-1.4,9.34,9.34,0,0,0-1.42-4.73c-1-1.53-2.74-2.32-5.11-2.39a9.86,9.86,0,0,0-6.13,1.82,7.47,7.47,0,0,0-3.16,5.15q-.76,4.55,6,7.46a62.73,62.73,0,0,1,9.83,5q9.64,6.51,9,17.57a19.39,19.39,0,0,1-3.27,10,19.18,19.18,0,0,1-8.17,6.69,27.39,27.39,0,0,1-11.71,2.28,25.74,25.74,0,0,1-8.84-1.69,19,19,0,0,1-7-4.64q-5.44-5.65-5.69-14.6a1.46,1.46,0,0,1,1.37-1.55h0l11.1,0a1.42,1.42,0,0,1,1.35,1.45,10.59,10.59,0,0,0,1.76,6.27q2,2.61,6.67,2.61a9.2,9.2,0,0,0,5.79-1.79A7.64,7.64,0,0,0,742.27,540.49Z"/><path class="cls-12" d="M800.83,532.33H780.28a1.43,1.43,0,0,0-1.35,1.27l-3.8,24.65a1.44,1.44,0,0,1-1.35,1.28H762.32a1.49,1.49,0,0,1-1.37-1.6.69.69,0,0,1,0-.2l10-65.21a1.41,1.41,0,0,1,1.34-1.27H809a1.49,1.49,0,0,1,1.38,1.61l0,.19-1.49,9.63a1.43,1.43,0,0,1-1.34,1.28H784.65a1.43,1.43,0,0,0-1.35,1.27l-1.94,12.63a1.5,1.5,0,0,0,1.14,1.78l.2,0h19.6a1.48,1.48,0,0,1,1.36,1.6,1.11,1.11,0,0,1,0,.19l-1.48,9.59A1.42,1.42,0,0,1,800.83,532.33Z"/><path class="cls-13" d="M823.92,546.82a1.5,1.5,0,0,1-1.16-1.76l2.06-13.24a1.41,1.41,0,0,1,1.34-1.27h6l1.9-12.21h-5.6a1.48,1.48,0,0,1-1.33-1.64.77.77,0,0,1,0-.15l1.77-11.3a1.41,1.41,0,0,1,1.21-1.24h7.16l1.91-12.71H817.93a1.43,1.43,0,0,0-1.34,1.28l-10,65.15a1.49,1.49,0,0,0,1.15,1.77l.2,0h20.71l1.91-12.71Z"/><path class="cls-14" d="M855.82,491.25h-6L848,504h6.36a1.44,1.44,0,0,0,1.35-1.28l1.5-9.63a1.49,1.49,0,0,0-1.14-1.77A.83.83,0,0,0,855.82,491.25Z"/><polygon class="cls-15" points="846.29 503.95 848.2 491.25 840.78 491.25 838.91 503.95 846.29 503.95"/><path class="cls-16" d="M847.2,546.82h-6l-1.88,12.71h6.37a1.43,1.43,0,0,0,1.34-1.28l1.51-9.63a1.49,1.49,0,0,0-1.15-1.77A.78.78,0,0,0,847.2,546.82Z"/><polygon class="cls-17" points="832.17 546.82 830.29 559.53 837.68 559.53 839.58 546.82 832.17 546.82"/><path class="cls-18" d="M850.67,518.34h-6l-1.88,12.19h6.37a1.4,1.4,0,0,0,1.34-1.22l1.48-9.24a1.44,1.44,0,0,0-1.13-1.7Z"/><polygon class="cls-19" points="833.76 530.56 841.14 530.56 843.05 518.38 835.63 518.38 833.76 530.56"/><g class="cls-20"><path class="cls-21" d="M1470.5,401.06H1264.84a63.12,63.12,0,0,0-63.11,63.11V669.83a63.12,63.12,0,0,0,63.11,63.11H1470.5a63.12,63.12,0,0,0,63.11-63.11V464.17A63.12,63.12,0,0,0,1470.5,401.06ZM1390.68,607h-31.43V565c7.09,0,14.31.23,21.51,0,23.36-.87,38.08-19.43,31.3-39.52-4.09-12.13-13.33-19.13-25.54-20.23-13.43-1.2-27.06-.27-41.79-.27V671.24h-51v-208c2.77-.17,5.35-.46,7.92-.46,31.3,0,62.6-.11,93.9,0,38,.14,67.36,28.24,69.36,66.08C1467.39,576,1438,607,1390.68,607Z"/><path class="cls-21" d="M387.43,87H49.27A103.77,103.77,0,0,0-54.5,190.78V528.93A103.77,103.77,0,0,0,49.27,632.71H387.43A103.77,103.77,0,0,0,491.2,528.93V190.78A103.77,103.77,0,0,0,387.43,87ZM256.19,425.6H204.5v-69c11.66,0,23.54.38,35.38-.07,38.41-1.43,62.6-31.94,51.46-65-6.73-19.93-21.92-31.45-42-33.26-22.09-2-44.5-.45-68.72-.45v273.4H96.76V189.31c4.56-.27,8.79-.76,13-.76,51.47-.05,102.93-.18,154.4,0,62.4.23,110.76,46.44,114.05,108.66C382.32,374.65,333.93,425.56,256.19,425.6Z"/></g></g><g class="cls-22"><g class="cls-20"><path class="cls-21" d="M1569.78,87h338.15a103.78,103.78,0,0,1,103.78,103.78V528.93a103.77,103.77,0,0,1-103.77,103.77H1569.77A103.77,103.77,0,0,1,1466,528.93V190.78A103.78,103.78,0,0,1,1569.78,87Z"/></g></g></svg>