<svg xmlns="http://www.w3.org/2000/svg" xmlns:xlink="http://www.w3.org/1999/xlink" viewBox="0 0 599.43 599.92"><defs><style>.cls-1{fill:none;}.cls-2{fill:#e7e7e7;}.cls-3{fill:#ececec;}.cls-4{fill:#f5f5f5;}.cls-10,.cls-4,.cls-8{opacity:0.2;}.cls-13,.cls-5{fill:#007cff;}.cls-15,.cls-17,.cls-6{fill:#fff;}.cls-7,.cls-8{fill:#00115d;}.cls-17,.cls-9{opacity:0.1;}.cls-11{fill:#1a2e35;}.cls-12{clip-path:url(#clip-path);}.cls-13{opacity:0.5;}.cls-14{clip-path:url(#clip-path-2);}.cls-15{opacity:0.3;}.cls-16{clip-path:url(#clip-path-3);}</style><clipPath id="clip-path"><path id="SVGID" class="cls-1" d="M238.77,174.87c18.58,25,57,29.23,94.79,33s75.56,0,80.74-12.84c-2.92,27.22-11.76,67.76-96.3,54C224.73,233.78,238.77,174.87,238.77,174.87Z"/></clipPath><clipPath id="clip-path-2"><path id="SVGID-2" data-name="SVGID" class="cls-1" d="M292.8,84.19c-3.3,9.6-15.37,19.07-31.23,20.19-9-3.74-29.62-38.06-26.6-57.6S276.68,1.41,284.44,0c7.08-1.26-23.62,30.29-22.1,47S292.8,84.19,292.8,84.19Z"/></clipPath><clipPath id="clip-path-3"><path id="SVGID-3" data-name="SVGID" class="cls-1" d="M384.39,104.41c-.37,8.33,6,19.18,17.78,24.8,8-.16,34.06-20.18,37.61-36S424.69,51,416,42.64c-4.65-4.48,8.94,30.23,2.75,42.57S384.39,104.41,384.39,104.41Z"/></clipPath></defs><g id="Capa_2" data-name="Capa 2"><g id="Capa_1-2" data-name="Capa 1"><path class="cls-2" d="M72.42,160.37s6.57-7,15.9-7.36c6.51-6,18.63-5,21.28-1,9.57-6.36,20.15-8.41,29.61,3.55-1.29-13.17-15.77-40.6-60.6-17.66-4-3.69-5.31-4.89-5.31-4.89s-1.83-5.29-3-5.53,0,5.83,0,5.83a8.57,8.57,0,0,0-6.71,1.4s-1.34-6-2.33-5.34-.55,6.27-.55,6.27-.68,1.6-2.93,6.6C7.51,139.07,5.17,170,9.25,182.59c3.9-14.74,14.42-17.09,25.73-15.07.84-4.71,11.54-10.5,19.93-7.55C63.59,156.54,72.42,160.37,72.42,160.37Z"/><path class="cls-2" d="M138.56,88.34s6-2.61,11.86-.31c5.67-2,12.93,1.87,13.51,5.06,7.66-1.39,14.79.18,17.47,10.15,2.73-8.54,1.07-29.48-33-27.23-1.53-3.38-2-4.47-2-4.47s.28-3.77-.39-4.24-1.57,3.62-1.57,3.62a5.92,5.92,0,0,0-4.55-.93s.79-4.11,0-3.94-2,3.75-2,3.75-.85.81-3.59,3.32c-30.41-15.43-40.15,3.19-41,12.11,6.37-8.12,13.55-6.76,20-2.48,1.79-2.7,10-3.43,14.42.65C134.09,83.59,138.56,88.34,138.56,88.34Z"/><path class="cls-2" d="M547.63,194.23s6-2.62,11.86-.32c5.67-2,12.93,1.88,13.51,5.07,7.66-1.4,14.79.17,17.46,10.14,2.74-8.54,1.08-29.48-33-27.23-1.53-3.38-2-4.46-2-4.46s.28-3.78-.4-4.25-1.56,3.63-1.56,3.63a5.81,5.81,0,0,0-4.55-.93s.79-4.11,0-3.95-2,3.75-2,3.75-.85.81-3.59,3.32c-30.41-15.42-40.16,3.19-41,12.12,6.37-8.13,13.54-6.77,20-2.48,1.78-2.71,10-3.44,14.41.64C543.16,189.48,547.63,194.23,547.63,194.23Z"/><path class="cls-2" d="M30.33,56.58a7.74,7.74,0,0,1,5.09-1.7c2.19-1.62,5.84-.89,6.51.41,3.13-1.61,6.42-1.87,8.89,2.09.06-4.05-3.42-12.89-17.84-7.44-1.11-1.26-1.45-1.66-1.45-1.66s-.38-1.67-.73-1.79-.2,1.78-.2,1.78a2.94,2.94,0,0,0-1.06-.12,3,3,0,0,0-1,.31s-.2-1.88-.52-1.7-.39,1.89-.39,1.89-.26.46-1.11,1.91C11.3,47.89,9.54,57.23,10.36,61.2c1.68-4.36,5-4.71,8.34-3.72.41-1.4,3.87-2.8,6.32-1.62A7.78,7.78,0,0,1,30.33,56.58Z"/><path class="cls-2" d="M520.37,76.28c-14.57,13.21-40.84,24.16-46.89-3.8a160.19,160.19,0,0,0,20.43,3.4c-.66,2.64,2.73,7.1,8.12,6.84,4.71-.23,7.5-3.54,5.28-6A115.19,115.19,0,0,0,520.37,76.28Z"/><path class="cls-2" d="M533.73,73.36a117.54,117.54,0,0,0,12-5.07c-.94,3.16,2.94,5,7.31,3.24,5-2,6.22-7.52,4.53-9.63a164,164,0,0,0,17.12-11.62C580.93,78.21,552.49,79.26,533.73,73.36Z"/><path class="cls-3" d="M462.61,94.11l-2.6,9.94c-4.67-6.29-7.21-12.55-7.36-17.6C452.65,86.45,455.57,90.23,462.61,94.11Z"/><path class="cls-3" d="M479.59,100.3,467.08,112a62.73,62.73,0,0,1-5.89-6.39L464,94.85A63.7,63.7,0,0,0,479.59,100.3Z"/><path class="cls-3" d="M491,102l10.74,28.5A76.94,76.94,0,0,1,468.2,113l13.23-12.33A93.32,93.32,0,0,0,491,102Z"/><path class="cls-3" d="M519.26,100.83l-14.17,30.41-1.58-.33-10.84-28.8A125.21,125.21,0,0,0,519.26,100.83Z"/><path class="cls-3" d="M526.22,99.64l21.54,29.77-.89.23a94.2,94.2,0,0,1-40.21,1.91l14.43-31C522.77,100.29,524.46,100,526.22,99.64Z"/><path class="cls-3" d="M556.63,90.79l-7.47,37.89L527.88,99.32c2.06-.4,4.2-.86,6.38-1.37A137,137,0,0,0,556.63,90.79Z"/><path class="cls-3" d="M560.48,89.08l26.71,17.75c-7.91,9.35-19.88,16.89-36.44,21.75l7.59-38.53C559.06,89.74,559.77,89.4,560.48,89.08Z"/><path class="cls-3" d="M580.36,75.87l10.53,26c-.85,1.26-1.74,2.51-2.71,3.72L562.1,88.29A73.48,73.48,0,0,0,580.36,75.87Z"/><path class="cls-3" d="M593.64,42.7a94.94,94.94,0,0,1,3.07,9.59l-2.77-.83A20.77,20.77,0,0,0,593.64,42.7Z"/><path class="cls-3" d="M599.1,65.26l-12,2.85A39.81,39.81,0,0,0,593.68,53l3.48,1.06A78.14,78.14,0,0,1,599.1,65.26Z"/><path class="cls-3" d="M591.89,100.3,581.54,74.7A54.06,54.06,0,0,0,585.67,70l13.56-3.22C600.16,79,597.9,90.42,591.89,100.3Z"/><ellipse id="_Path_" data-name="&lt;Path&gt;" class="cls-4" cx="298.55" cy="582.48" rx="298.55" ry="17.44"/><path class="cls-5" d="M233.81,569.24,209.48,571l-.67-9,21.94-1.61-.68-9.31-21.94,1.62-.54-7.25,23.65-1.74-.71-9.74-37.79,2.78,2.55,34.62H234Z"/><path class="cls-5" d="M279.45,563a19.48,19.48,0,0,0-2.19-2.7,13.94,13.94,0,0,0-2.43-2.22,14.18,14.18,0,0,0-3.8-1.43,17,17,0,0,0,4.82-2.16,13.36,13.36,0,0,0,2.6-18.7,10.62,10.62,0,0,0-5.88-3.75,34,34,0,0,0-10.06-.39L239,533.37l2.8,38h14.25l-.89-12,1.25-.08a5.88,5.88,0,0,1,3.53.8,10.71,10.71,0,0,1,2.81,3.32l5.07,7.93h16.8Zm-13.11-15.1a3.67,3.67,0,0,1-2.18,1.59,19.84,19.84,0,0,1-3.69.9l-6,.44-.68-9.28,6.2-.45c2.57-.19,4.35.07,5.34.8a4.19,4.19,0,0,1,1.66,3.28A4.26,4.26,0,0,1,266.34,547.88Z"/><path class="cls-5" d="M329,559.32a18.26,18.26,0,0,0-2.19-2.69,9.56,9.56,0,0,0-6.22-3.64,17.42,17.42,0,0,0,4.81-2.18,12.17,12.17,0,0,0,5.27-11.47,12.55,12.55,0,0,0-2.67-7.23,10.69,10.69,0,0,0-5.87-3.75,33.92,33.92,0,0,0-10.08-.38l-23.5,1.73,3.07,41.69h14.23l-1.14-15.62,1.25-.09a5.84,5.84,0,0,1,3.52.8,10.47,10.47,0,0,1,2.82,3.34l7.41,11.57h16.69Zm-13.11-15.1a3.79,3.79,0,0,1-2.18,1.61,22.6,22.6,0,0,1-3.69.89l-5.95.45-.68-9.28,6.2-.47c2.57-.19,4.35.07,5.34.8a4.15,4.15,0,0,1,1.65,3.3A4.22,4.22,0,0,1,315.93,544.22Z"/><path class="cls-5" d="M406.2,543.4q-.81-11-7.44-16.67t-18-4.83q-11.11.83-16.88,7.5t-4.95,17.87c.39,5.34,1.77,9.69,4.13,13.09a19.3,19.3,0,0,0,8.78,7.18,29.23,29.23,0,0,0,13,1.52,25.85,25.85,0,0,0,12.49-3.79,19.21,19.21,0,0,0,7.19-8.54Q406.78,551.42,406.2,543.4Zm-15.83,11.66a9.77,9.77,0,0,1-14,1q-2.79-2.84-3.3-9.75t1.85-10.18a8.54,8.54,0,0,1,6.62-3.53,8.93,8.93,0,0,1,7.28,2.46c1.87,1.86,3,4.92,3.29,9.22C392.46,549.37,391.88,553,390.37,555.06Z"/><path class="cls-5" d="M455.2,549.53a14,14,0,0,0,.88-14,10.57,10.57,0,0,0-5.14-4.7,33.91,33.91,0,0,0-9.87-2.11l-23.44-2.31-4.46,44.95h14.29l1.63-16.51,1.23.13a6,6,0,0,1,3.34,1.41,10.22,10.22,0,0,1,2.2,3.76l4.72,11.21h15.33l-3.51-8.85a17.17,17.17,0,0,0-1.69-3,14.38,14.38,0,0,0-2-2.62,14.06,14.06,0,0,0-3.51-2,17,17,0,0,0,5.12-1.32A12.58,12.58,0,0,0,455.2,549.53Zm-12-6.65a4.11,4.11,0,0,1-1.14,2.54,3.82,3.82,0,0,1-2.43,1.22,19.27,19.27,0,0,1-3.79.23l-5.92-.57.9-9.25,6.19.6c2.56.24,4.29.83,5.13,1.69A4.27,4.27,0,0,1,443.22,542.88Z"/><path class="cls-6" d="M233.81,569.24,209.48,571l-.67-9,21.94-1.61-.68-9.31-21.94,1.62-.54-7.25,23.65-1.74-.71-9.74-37.79,2.78,2.55,34.62H234Z"/><path class="cls-6" d="M279.45,563a19.48,19.48,0,0,0-2.19-2.7,13.94,13.94,0,0,0-2.43-2.22,14.18,14.18,0,0,0-3.8-1.43,17,17,0,0,0,4.82-2.16,13.36,13.36,0,0,0,2.6-18.7,10.62,10.62,0,0,0-5.88-3.75,34,34,0,0,0-10.06-.39L239,533.37l2.8,38h14.25l-.89-12,1.25-.08a5.88,5.88,0,0,1,3.53.8,10.71,10.71,0,0,1,2.81,3.32l5.07,7.93h16.8Zm-13.11-15.1a3.67,3.67,0,0,1-2.18,1.59,19.84,19.84,0,0,1-3.69.9l-6,.44-.68-9.28,6.2-.45c2.57-.19,4.35.07,5.34.8a4.19,4.19,0,0,1,1.66,3.28A4.26,4.26,0,0,1,266.34,547.88Z"/><path class="cls-6" d="M329,559.32a18.26,18.26,0,0,0-2.19-2.69,9.56,9.56,0,0,0-6.22-3.64,17.42,17.42,0,0,0,4.81-2.18,12.17,12.17,0,0,0,5.27-11.47,12.55,12.55,0,0,0-2.67-7.23,10.69,10.69,0,0,0-5.87-3.75,33.92,33.92,0,0,0-10.08-.38l-23.5,1.73,3.07,41.69h14.23l-1.14-15.62,1.25-.09a5.84,5.84,0,0,1,3.52.8,10.47,10.47,0,0,1,2.82,3.34l7.41,11.57h16.69Zm-13.11-15.1a3.79,3.79,0,0,1-2.18,1.61,22.6,22.6,0,0,1-3.69.89l-5.95.45-.68-9.28,6.2-.47c2.57-.19,4.35.07,5.34.8a4.15,4.15,0,0,1,1.65,3.3A4.22,4.22,0,0,1,315.93,544.22Z"/><path class="cls-6" d="M406.2,543.4q-.81-11-7.44-16.67t-18-4.83q-11.11.83-16.88,7.5t-4.95,17.87c.39,5.34,1.77,9.69,4.13,13.09a19.3,19.3,0,0,0,8.78,7.18,29.23,29.23,0,0,0,13,1.52,25.85,25.85,0,0,0,12.49-3.79,19.21,19.21,0,0,0,7.19-8.54Q406.78,551.42,406.2,543.4Zm-15.83,11.66a9.77,9.77,0,0,1-14,1q-2.79-2.84-3.3-9.75t1.85-10.18a8.54,8.54,0,0,1,6.62-3.53,8.93,8.93,0,0,1,7.28,2.46c1.87,1.86,3,4.92,3.29,9.22C392.46,549.37,391.88,553,390.37,555.06Z"/><path class="cls-6" d="M455.2,549.53a14,14,0,0,0,.88-14,10.57,10.57,0,0,0-5.14-4.7,33.91,33.91,0,0,0-9.87-2.11l-23.44-2.31-4.46,44.95h14.29l1.63-16.51,1.23.13a6,6,0,0,1,3.34,1.41,10.22,10.22,0,0,1,2.2,3.76l4.72,11.21h15.33l-3.51-8.85a17.17,17.17,0,0,0-1.69-3,14.38,14.38,0,0,0-2-2.62,14.06,14.06,0,0,0-3.51-2,17,17,0,0,0,5.12-1.32A12.58,12.58,0,0,0,455.2,549.53Zm-12-6.65a4.11,4.11,0,0,1-1.14,2.54,3.82,3.82,0,0,1-2.43,1.22,19.27,19.27,0,0,1-3.79.23l-5.92-.57.9-9.25,6.19.6c2.56.24,4.29.83,5.13,1.69A4.27,4.27,0,0,1,443.22,542.88Z"/><path class="cls-7" d="M386.74,460.07c3,4.12,5.1,14-.08,15.19s-3.07-14.93-3.07-14.93C382.25,459,383.42,455.55,386.74,460.07Z"/><path class="cls-7" d="M375.41,544.36c3.25,2.29,7.24,9,3.72,11.22s-6-10.24-6-10.24C371.83,544.66,371.84,541.86,375.41,544.36Z"/><path class="cls-7" d="M316.05,547.18c-.21,4-3.84,10.93-7.54,9.09S314,545.78,314,545.78C313.9,544.29,316.29,542.82,316.05,547.18Z"/><path class="cls-7" d="M385.12,453.46c5.19.72,11.79,6.34,6.47,11.1s-9.91-8.53-9.91-8.53C379.58,456,379.43,452.68,385.12,453.46Z"/><path class="cls-7" d="M385.07,458.64c4.76,26.54-10,56.33-5.69,84.91,1.2,7.87-11.37-.41-11.37-.41s-29.25-2.84-37.11.2c-1.35,7.38-22.15,12.29-23.4-1.83s-2.42-49.29-2.42-49.29S363,452.31,385.07,458.64Z"/><path class="cls-8" d="M315.15,485.66c-6.16,3.88-10.06,6.56-10.06,6.56s.34,10.24.85,21.88c13.52-8.23,25-21.55,25-21.55A63.41,63.41,0,0,0,315.15,485.66Z"/><path class="cls-7" d="M313.84,544.76c-1.08,14.09-14.17,34.13-9.46,40.09s82.05,5.42,92.34,0-23.57-27.76-23-46.38C314.92,523.1,313.84,544.76,313.84,544.76Z"/><path class="cls-7" d="M314.14,579.52c-6.91-6.91-18.86.18-20.67,8.49,13.72,2.89,23.2-1.27,23.2-1.27A9.65,9.65,0,0,0,314.14,579.52Z"/><path class="cls-7" d="M389.23,577.74c6.91-6.91,18.87.18,20.68,8.49-13.73,2.89-23.2-1.27-23.2-1.27A9.62,9.62,0,0,1,389.23,577.74Z"/><path class="cls-7" d="M372.64,579.32c6.53-8.29,17.83.21,19.54,10.18-13,3.46-21.93-1.52-21.93-1.52S369.82,582.89,372.64,579.32Z"/><path class="cls-7" d="M357.62,578.26c15.18-2.17,17.64,4.62,11.83,13.19-16.21.27-18.7-3.47-18.7-3.47S346.88,579.79,357.62,578.26Z"/><path class="cls-7" d="M170.15,410.3c-5,1.26-12.84,7.57-9.59,11.78s11.86-9.58,11.86-9.58C174.32,412.29,175.59,408.92,170.15,410.3Z"/><path class="cls-7" d="M131,479c-3.86.93-10.07,5.75-7.59,9s9.33-7.31,9.33-7.31C134.24,480.64,135.26,478,131,479Z"/><path class="cls-7" d="M180.19,517c-2.56,3.05-4.68,10.61-.72,11.8s3.15-11.43,3.15-11.43C183.73,516.39,183,513.69,180.19,517Z"/><path class="cls-7" d="M219.84,480.77c-2.92,2.7-6,10-2.18,11.62s4.55-10.95,4.55-10.95C223.43,480.59,223,477.81,219.84,480.77Z"/><path class="cls-7" d="M175.6,406.22c-4.46-2.74-13.13-2.6-12,4.46s13.06-.29,13.06-.29C178.24,411.73,180.49,409.23,175.6,406.22Z"/><path class="cls-7" d="M191.43,393.93c-20.57,17.43-39,62.14-60.5,81.42-5.94,5.31,9,6.93,9,6.93s27.92,12.88,32,20.23c-3.66,6.55,9.25,23.57,19.2,13.49s33.26-36.47,33.26-36.47S212.47,403.1,191.43,393.93Z"/><path class="cls-7" d="M90.18,526.86c-5.68-8-18.64-2.9-21.78,5,13.07,5.1,23.1,2.55,23.1,2.55A9.63,9.63,0,0,0,90.18,526.86Z"/><path class="cls-7" d="M182.42,516.05c-9.19,10.72-2.53,49-9.61,51.74S52.18,549.67,93.13,521.13c9.54-6.65,31.35-24.81,37.71-42.32C191.14,486.19,182.42,516.05,182.42,516.05Z"/><path class="cls-7" d="M169.07,558.32c8.55,4.74,5,18.19-2.47,22.21-6.55-12.4-5.17-22.66-5.17-22.66A9.64,9.64,0,0,1,169.07,558.32Z"/><path class="cls-7" d="M99.41,536.11c-6-12-21.32-3.91-25.7,4.84,9.44,9.55,23.38,3.84,23.38,3.84S101.43,540.18,99.41,536.11Z"/><path class="cls-7" d="M111.78,543c-12.59-8.77-23.25,1.38-21.91,11.65,14.35,7.54,23.66.13,23.66.13S120.68,549.24,111.78,543Z"/><path class="cls-7" d="M271.48,501.25c79,13.57,133.33-36.78,192.93-159.79,33.16-68.45-7.16-115.54-29.29-124.29,10-22.1-.08-56.07-14.62-70.66,5.44,4.6,14-.17,14-.17-10.72-5.87-25.25-58.93-89.78-71.47-58.87-11.45-88.5,21.44-110,33.51,0,0,4.78,8.7,14.62,8.74-18.57,8.9-35.79,33.43-37.35,61.74-23.78.86-72.14,31.4-69.06,107.4C148.42,422.84,192.47,487.69,271.48,501.25Z"/><path class="cls-9" d="M250.36,161.26c20.61-2.75,41.15,3.2,50.87,11.85C280.88,164.75,250.36,161.26,250.36,161.26Z"/><path class="cls-9" d="M346.17,187.74c17.67-3.7,35.82.13,44.78,7C372.81,188.8,346.17,187.74,346.17,187.74Z"/><path class="cls-9" d="M274.49,173.11c7.89-4.17,16.7-3.39,22.89,2A144,144,0,0,0,274.49,173.11Z"/><path class="cls-10" d="M142.83,284.34c14.32-16.71,26-39.85,28.19-54.16a99.31,99.31,0,0,0-20.63,3.56C145.23,247.61,142.24,264.38,142.83,284.34Z"/><path class="cls-10" d="M476.68,283a104.4,104.4,0,0,0-16-7c-1.39,12.45,2.41,33.15,9.64,51.36C476.14,311.07,477.79,296.2,476.68,283Z"/><path class="cls-9" d="M254.71,174.89c-3.49-7.16-9.89-11.75-16.85-11.51-5.06.17-19.44.81-8.93,24.91C240.59,215,269.57,205.36,254.71,174.89Z"/><path class="cls-9" d="M411.19,186.14c5.94-2.64,11.2-1.49,13.45,3.42,1.64,3.57,6.19,13.81-13.38,23.5C389.57,223.8,385.9,197.33,411.19,186.14Z"/><path class="cls-6" d="M316.54,164.22a18.56,18.56,0,0,1-4.77,6.61,5.87,5.87,0,0,1-7.44.26c-7.15-5.39-17.67-10.19-30.54-12.32a5.9,5.9,0,0,1-4.39-8.45l0-.09C281.59,126.73,326,141.69,316.54,164.22Z"/><path class="cls-11" d="M298,149.07c7.46-9,22,2.47,16.89,11.14C309.12,170,288.81,160.14,298,149.07Z"/><path class="cls-6" d="M385.15,186.15a178.29,178.29,0,0,0-39-1.49A11.53,11.53,0,0,1,335.38,179a24.26,24.26,0,0,1-2.94-8.09c-5.29-32,56.54-37.71,65-3.69a41,41,0,0,1,1.11,6.54A11.59,11.59,0,0,1,385.15,186.15Z"/><path class="cls-11" d="M354.18,162c-3.61-5.13-13.54-.18-10.6,4.8S359,168.76,354.18,162Z"/><path class="cls-11" d="M238.77,174.87c18.58,25,57,29.23,94.79,33s75.56,0,80.74-12.84c-2.92,27.22-11.76,67.76-96.3,54C224.73,233.78,238.77,174.87,238.77,174.87Z"/><g class="cls-12"><path class="cls-13" d="M231.17,223.81c21.94-12.57,54.59-14.38,89.78,6.92,20.46-6.82,63.35-11.88,77.26,27.58C306.84,278.31,231.17,223.81,231.17,223.81Z"/><path class="cls-6" d="M324.41,204.94c-2,7.35-10.65,12.82-17.66,11.08C295,213.08,296,201.89,296,201.89Z"/><path class="cls-6" d="M289.18,200.27c-2.91,6.17-12.09,9-17.32,7-6.89-2.65-7.28-14.15-7.28-14.15Z"/><path class="cls-6" d="M263.74,190.39c-3.83,3.94-11.19,4.37-15,.82a9.76,9.76,0,0,1-1.85-12.66Z"/><path class="cls-6" d="M332.87,206.26c.69,6.79,7.62,11.22,14,12.37,5.8,1.05,11.58-10.91,11.58-10.91Z"/><path class="cls-6" d="M366.76,206.13c1.33,5.31,5.57,9.54,8.64,8.56,5.15-1.64,4-9.64,4-9.64Z"/><path class="cls-6" d="M389,204.75c1.29,3.37,5.64,5.54,8.87,4.38a6.42,6.42,0,0,0,4.4-7.18Z"/><path class="cls-6" d="M309.67,252.54c1.94-7.37,10.55-12.9,17.57-11.21,11.8,2.85,10.87,14,10.87,14Z"/><path class="cls-6" d="M351,256.19c.2-6.82,7.48-13.09,13.07-13.34,7.37-.34,12.33,10.05,12.33,10.05Z"/><path class="cls-6" d="M382.39,248.93c-.18-7.34,2.63-14.18,5.74-13.87,5.23.53,6.34,11.32,6.34,11.32Z"/><path class="cls-6" d="M294.58,247.83c1.61-8.52-3.71-15.84-9.59-19-5.35-2.87-15.05,10.23-15.05,10.23Z"/><path class="cls-6" d="M261.2,229.82c2-5.1.95-11-2.11-12-5.16-1.64-8.87,5.53-8.87,5.53Z"/><path class="cls-6" d="M253.29,223.5c2.09-3,1.47-7.78-1.29-9.81a6.42,6.42,0,0,0-8.42.33Z"/></g><path class="cls-7" d="M226.34,137.59c-8.88,12-16.63,21.28-20.61,23.16,8.33,4,13.6.78,13.6.78S236.08,124.47,226.34,137.59Z"/><path class="cls-7" d="M367.32,81.58c-11.09-9.09-38-6.33-55.92-23.92-3.18,8.68,3.79,15,3.79,15S380,91.94,367.32,81.58Z"/><path class="cls-7" d="M368,81.63c-6.76-8.79-23.79-5.32-34.67-22.4a19.11,19.11,0,0,0,2,14.85S375.68,91.64,368,81.63Z"/><path class="cls-7" d="M75.15,236.48c-13.28,5.44-23.62,30.4-47.63,37.84,6.13,6.93,15,3.78,15,3.78S90.26,230.29,75.15,236.48Z"/><path class="cls-7" d="M45.05,358.27c0,32.14,18.63,33,17.91,58.15,8.54-3.56,10.93-13.81,10.93-13.81S45.06,341.93,45.05,358.27Z"/><path class="cls-7" d="M553.64,296.1c8.5,11.56,16,31.7,34.3,58.26-8,4.71-15.42-5.95-15.42-5.95S544,282.94,553.64,296.1Z"/><path class="cls-7" d="M76.43,234.18C66,238,49.16,265.12,29,266.56a19.12,19.12,0,0,0,14,5.3S69.38,259.59,76.43,234.18Z"/><path class="cls-7" d="M109.83,311.46c9,6.42,6.22,23.57,23.71,33.78a19.11,19.11,0,0,1-14.92-1.42S99.53,304.14,109.83,311.46Z"/><path class="cls-11" d="M292.8,84.19c-3.3,9.6-15.37,19.07-31.23,20.19-9-3.74-29.62-38.06-26.6-57.6S276.68,1.41,284.44,0c7.08-1.26-23.62,30.29-22.1,47S292.8,84.19,292.8,84.19Z"/><path class="cls-11" d="M384.39,104.41c-.37,8.33,6,19.18,17.78,24.8,8-.16,34.06-20.18,37.61-36S424.69,51,416,42.64c-4.65-4.48,8.94,30.23,2.75,42.57S384.39,104.41,384.39,104.41Z"/><g class="cls-14"><path class="cls-15" d="M250,101.92a2.37,2.37,0,0,1-1.56-.56,3.26,3.26,0,0,1-1-2.1c-.44-3,.93-6.26,3.68-8.8A31.11,31.11,0,0,1,258,86.07l1.18-.63A88.59,88.59,0,0,0,276,73.79c2.18-1.93,4.23-4.07,4.54-6.74a1.36,1.36,0,0,0-.13-1,1.69,1.69,0,0,0-1.18-.39c-7.57-.56-14.78,3.7-20.22,7.46-1,.68-2,1.38-2.93,2.07-5.13,3.65-10.44,7.42-16.6,9.07a11.43,11.43,0,0,1-6.63.17,5.79,5.79,0,0,1-4.19-5.19c0-2.45,1.78-4.61,5.32-6.42a93.15,93.15,0,0,1,12.79-5c2-.66,3.93-1.32,5.86-2,5.26-1.95,11.87-4.87,16.42-10.25.92-1.09,1.91-2.67,1.37-4A3.46,3.46,0,0,0,268.88,50c-2.35-1.44-5.48-1.79-9.56-1.09a34.54,34.54,0,0,0-16.93,8.11c-.87.77-1.71,1.59-2.56,2.41a28.51,28.51,0,0,1-7,5.53c-3.89,1.93-9.53,1.61-11.82-2.26-1.93-3.23-.58-7.36,1.74-9.77,2.46-2.56,5.91-3.76,9-4.6,4-1.08,8.05-1.8,12-2.5,6.25-1.09,12.71-2.23,18.57-4.8a18.48,18.48,0,0,0,5.54-3.47,2.25,2.25,0,0,0,.78-1.21.87.87,0,0,0-.24-.75,4.49,4.49,0,0,0-3-1c-8.88-.15-17.88-.16-26.73,0-3.33.08-5.44-1.11-5.62-3.11-.12-1.32.68-2.57,2.45-3.79A33.66,33.66,0,0,1,253,21.84a66.56,66.56,0,0,1,11.74.89c4.47.61,9.09,1.24,13.59.72,1.1-.13,2.66-.43,3.35-1.48,1-1.55-.33-3.85-2.14-5.23-3.59-2.74-7.91-4-12.48-5.24a60.13,60.13,0,0,1-8.47-2.83A4.41,4.41,0,0,1,256,6a1.78,1.78,0,0,1,.45-1.62,3,3,0,0,1,1.57-.77,32.14,32.14,0,0,1,22.39,3c3.41,1.85,5.28,4.17,5.4,6.68a.6.6,0,0,1-.58.64.59.59,0,0,1-.63-.58c-.13-2.61-2.67-4.53-4.77-5.67a30.86,30.86,0,0,0-21.53-2.9,1.94,1.94,0,0,0-.95.41.55.55,0,0,0-.15.54,3.3,3.3,0,0,0,1.81,1.81,59.42,59.42,0,0,0,8.3,2.77c4.48,1.26,9.11,2.56,12.89,5.44,2.3,1.76,3.87,4.69,2.42,6.88-1,1.47-2.88,1.85-4.23,2-4.65.54-9.35-.1-13.9-.72A65.39,65.39,0,0,0,253,23.06a32.39,32.39,0,0,0-16.87,5.67c-1.38.95-2,1.83-1.94,2.68.18,2,3.69,2,4.39,2,8.87-.13,17.88-.12,26.78,0a5.6,5.6,0,0,1,3.88,1.38,2.15,2.15,0,0,1,.53,1.69,3.31,3.31,0,0,1-1.14,2,19.51,19.51,0,0,1-5.9,3.71c-6,2.63-12.53,3.78-18.85,4.89-3.93.7-8,1.41-11.9,2.48-2.89.79-6.15,1.92-8.41,4.27-2,2-3.16,5.62-1.57,8.3,2,3.27,6.83,3.48,10.25,1.79A27.66,27.66,0,0,0,239,58.58c.86-.83,1.72-1.66,2.6-2.44a35.77,35.77,0,0,1,17.54-8.4c4.38-.76,7.78-.35,10.39,1.25a4.48,4.48,0,0,1,2,2.1c.62,1.5.08,3.32-1.56,5.25-4.73,5.59-11.53,8.6-16.93,10.6-1.94.72-3.92,1.38-5.89,2a91.34,91.34,0,0,0-12.63,5c-3.09,1.58-4.66,3.37-4.65,5.33s1.69,3.48,3.35,4a10.26,10.26,0,0,0,5.93-.18c6-1.6,11.17-5.31,16.21-8.89,1-.7,2-1.4,2.94-2.08,5.61-3.88,13.07-8.27,21-7.68a2.69,2.69,0,0,1,2.05.87,2.41,2.41,0,0,1,.38,1.86c-.35,3.07-2.58,5.42-4.94,7.5a89.89,89.89,0,0,1-17,11.82l-1.18.62A30.5,30.5,0,0,0,252,91.36c-2.45,2.26-3.69,5.15-3.31,7.72a2.16,2.16,0,0,0,.59,1.35c.93.78,2.62-.38,3.31-.92l3.52-2.79c7.47-5.93,15.19-12.06,23.53-17,11-6.54,21.67-10.09,31.73-10.55a.61.61,0,0,1,.64.58.62.62,0,0,1-.58.64c-9.86.45-20.35,3.94-31.16,10.37-8.27,4.92-16,11-23.41,16.93l-3.52,2.79A5.63,5.63,0,0,1,250,101.92Z"/></g><g class="cls-16"><path class="cls-15" d="M418,132.06c-1.2,0-2.27-.93-3.17-1.71l-.38-.33a42.21,42.21,0,0,0-4.83-3.28c-5.73-3.53-12.86-7.92-17.12-20-3.12-8.84-14.51-12.26-24.55-15.28l-3.15-1a.6.6,0,0,1-.4-.76.62.62,0,0,1,.76-.4c1,.32,2.07.63,3.14.95,10.32,3.11,22,6.62,25.35,16.05,4.11,11.64,11,15.9,16.6,19.33a40.75,40.75,0,0,1,5,3.39l.4.34c.89.77,1.91,1.65,2.74,1.34a1.55,1.55,0,0,0,.81-.87c.9-1.93.33-4.53-1.52-7a31.14,31.14,0,0,0-5.43-5.11l-1-.82a91.93,91.93,0,0,1-13.86-14c-1.84-2.31-3.5-4.81-3.17-7.44a2,2,0,0,1,.84-1.52,2.93,2.93,0,0,1,2.14-.17c7.78,1.59,14,7,18.57,11.64.81.81,1.6,1.62,2.39,2.44,4.1,4.21,8.33,8.57,13.74,11.41a12.39,12.39,0,0,0,5.69,1.7h.05c1.71,0,3.65-.8,4.06-2.3.52-1.89-1.52-4-3.33-5.41a102.45,102.45,0,0,0-11.13-7.29c-1.76-1-3.52-2.09-5.24-3.17-4.77-3-10.68-7.22-14-13-1.5-2.58-1-4-.34-4.83a4.29,4.29,0,0,1,2.4-1.21c2.86-.61,6.22-.06,10.26,1.68a39,39,0,0,1,15.08,11.33c.69.87,1.34,1.76,2,2.65a26.92,26.92,0,0,0,5.35,6c3,2.28,7.82,3.32,10.34,1.24,2.07-1.71,1.69-4.78.24-6.92-1.67-2.49-4.58-4.25-7.2-5.64-3.53-1.88-7.31-3.52-11-5.1-5.86-2.54-11.92-5.16-17.12-8.83a20.43,20.43,0,0,1-4.89-4.53,2.83,2.83,0,0,1-.7-2,1.73,1.73,0,0,1,.77-1.23c1-.69,2.83-.57,4.2-.22,8.59,2.17,17.29,4.5,25.86,6.92,2,.57,4.24.67,4.65-.4.24-.6-.2-1.45-1.28-2.54a36.88,36.88,0,0,0-15.1-9,78.39,78.39,0,0,0-11.33-2.28,66.29,66.29,0,0,1-13.55-3c-1.36-.52-3-1.29-3.63-2.72a2.66,2.66,0,0,1,0-2.24,6.4,6.4,0,0,1,3.86-2.89c4.27-1.35,9-1.2,13.62-1.05a70.72,70.72,0,0,0,8.62-.09,3,3,0,0,0,2.11-1c0-.07.06-.15,0-.31a2.25,2.25,0,0,0-.84-.58A36.36,36.36,0,0,0,408.83,48c-2.27.38-5.11,1.25-5.78,3.27a.61.61,0,0,1-.77.39.62.62,0,0,1-.39-.77c.68-2.06,3-3.47,6.74-4.09a37.52,37.52,0,0,1,22.21,3.37,3.12,3.12,0,0,1,1.34,1,1.5,1.5,0,0,1,.11,1.51c-.47,1-1.93,1.52-3.09,1.63a69.49,69.49,0,0,1-8.78.09c-4.7-.14-9.14-.29-13.21,1a5.18,5.18,0,0,0-3.12,2.24,1.42,1.42,0,0,0,0,1.24c.44,1,1.89,1.67,2.94,2.07a65.74,65.74,0,0,0,13.3,2.95,79.59,79.59,0,0,1,11.51,2.33,38.09,38.09,0,0,1,15.61,9.28c.54.55,2.19,2.2,1.55,3.84s-2.91,2-6.12,1.14c-8.56-2.42-17.25-4.75-25.83-6.92a4.77,4.77,0,0,0-3.22,0,.53.53,0,0,0-.24.38,1.9,1.9,0,0,0,.48,1.09,19,19,0,0,0,4.6,4.25c5.1,3.6,11.1,6.2,16.9,8.71,3.68,1.6,7.48,3.24,11.05,5.14,2.76,1.46,5.82,3.33,7.65,6s2.14,6.37-.49,8.54c-3.05,2.53-8.53,1.34-11.85-1.21a28.39,28.39,0,0,1-5.6-6.3c-.63-.88-1.26-1.76-1.94-2.61a37.76,37.76,0,0,0-14.61-11c-3.81-1.64-6.92-2.15-9.52-1.61a3.24,3.24,0,0,0-1.74.82c-.75.86-.16,2.34.48,3.42,3.22,5.52,9,9.61,13.63,12.54,1.71,1.09,3.46,2.13,5.21,3.17a104.89,104.89,0,0,1,11.27,7.37c3,2.41,4.3,4.66,3.75,6.69-.51,1.87-2.66,3.18-5.23,3.2h-.06a13.52,13.52,0,0,1-6.25-1.84c-5.59-2.93-9.89-7.36-14.05-11.64-.79-.81-1.58-1.63-2.38-2.43-4.44-4.47-10.49-9.79-17.95-11.3a2.05,2.05,0,0,0-1.25,0,.89.89,0,0,0-.28.64c-.27,2.18,1.24,4.43,2.91,6.53A90.94,90.94,0,0,0,412,116.07l1,.81a32.81,32.81,0,0,1,5.64,5.33c2.12,2.79,2.74,5.86,1.64,8.21a2.7,2.7,0,0,1-1.48,1.49A2.1,2.1,0,0,1,418,132.06Z"/></g><path class="cls-11" d="M277.63,137.45c37.08,14.31,40.68,24.42,44.36,20.44s1.81-21.1-6.81-28.09-12.37-3.5-10-.73c-12.44-9.06-26.5-10.29-30.86-8.89s.68,4.47.68,4.47S249.15,126.47,277.63,137.45Z"/><path class="cls-11" d="M392.05,159.72c-50.7-.81-58.95,7.26-61.93,2.14s5.82-20.41,19-23.65,16.44,1.46,12.47,3.14c18.62-3.71,36.25.51,41,3.49s-2.53,3.91-2.53,3.91S431,160.35,392.05,159.72Z"/><path class="cls-7" d="M290.55,83.89c-2-4.68-1.85-14.79,3.46-14.79s-.32,15.24-.32,15.24C294.68,86,292.78,89,290.55,83.89Z"/><path class="cls-7" d="M214,184.21c-4.48-2.48-10.5-10.59-6.3-13.83s9,12.27,9,12.27C218.52,183.33,218.88,186.92,214,184.21Z"/><path class="cls-7" d="M291.28,87.05c-4.68-2.06-11.41-9.6-7.51-13.21s10.11,11.41,10.11,11.41C295.73,85.77,296.41,89.31,291.28,87.05Z"/><path class="cls-7" d="M387.15,107.13c6.88-1.89,17.74-10.91,13.1-16.7s-16.32,13.68-16.32,13.68C381.27,104.45,379.59,109.2,387.15,107.13Z"/><path class="cls-17" d="M313.24,261.77c76.21,11.36,102,47.22,96.84,76.81-4.18,23.82-14.38,6.54-14.38,6.54s3.15,56.27-29.51,84.62c-10.37,9-8.41-4.28-8.41-4.28s-32.09,55.73-71.24,50.38c-57.25-7.82-59.63-67.34-59.63-67.34s-11.07,16.77-20.17-7.33c-10-26.55-10.24-61.55,2.63-87.69C191.29,324.42,187.58,243,313.24,261.77Z"/><path class="cls-17" d="M316.07,267.35c-58.93-10.88-86.89,6-90.44,26.25-2.87,16.31,8.94,7.64,8.94,7.64s-16.34,35.4.63,61.41c5.39,8.26,7.25-.75,7.25-.75s9.73,43.47,39.88,49.37c44.1,8.63,56.54-30.24,56.54-30.24s7.29,17.41,19.51,1.56,21.11-42.8,21.26-57.24C390.22,336.69,413.25,285.28,316.07,267.35Z"/><path class="cls-7" d="M211.66,247.41c-.34.71-.65.84-.95.83l-.91,0-1.81-.08h-3.64l-3.66.18c-1.22.07-2.45.23-3.67.33a94,94,0,0,0-14.84,2.92,126.46,126.46,0,0,0-29.64,12.95,178.25,178.25,0,0,0-28,20.6A216.29,216.29,0,0,0,99.74,311l7.51-21.65,1.14,8.74,1.45,8.46c.61,2.71,1.16,5.45,1.82,8.07s1.33,5.22,2.18,7.57A68.1,68.1,0,0,0,119.16,335c.45.95,1,1.57,1.43,2.35a8.11,8.11,0,0,0,.69.95c.23.26.45.64.65.81l.57.57a3.22,3.22,0,0,0,.41.21c.07.07.06-.08.07-.12a.36.36,0,0,0,0-.22,6.25,6.25,0,0,0-.33-.63c-.09-.14-.35-.5-.53-.73l-.3-.39-.62-.69-.7-.75a42.73,42.73,0,0,1-60.6,60.26l-.91-1-.83-.93-.71-.87c-.45-.55-1-1.22-1.33-1.69-.63-.87-1.25-1.75-1.85-2.63s-1-1.52-1.45-2.3-1-1.56-1.31-2.21c-.73-1.36-1.51-2.78-2.16-4.11L47.53,377c-.59-1.3-1-2.47-1.52-3.72s-1-2.48-1.36-3.64c-.76-2.33-1.64-4.77-2.21-7a151.63,151.63,0,0,1-4.93-26.08c-.54-4.2-.68-8.21-1-12.28s-.2-8-.26-11.92c.1-3.88.17-7.77.32-11.61l.76-11.37.36-5.36a26.1,26.1,0,0,1,7.15-16.28,286.08,286.08,0,0,1,32.24-35.1,247.08,247.08,0,0,1,38.93-29.28,192,192,0,0,1,46.7-20.55,165.25,165.25,0,0,1,26.12-5.23c2.24-.22,4.47-.48,6.73-.64s4.51-.28,6.78-.35,4.54-.06,6.81-.05l3.41.12,1.7.06a2,2,0,0,1,1.65.94,52,52,0,0,1,4.12,52.66Z"/><path class="cls-7" d="M432.41,215.93a1.58,1.58,0,0,1,1.6-.48l1.4.36,2.79.72,5.56,1.57c3.7,1.11,7.39,2.28,11.06,3.57a224.49,224.49,0,0,1,21.73,8.92A197,197,0,0,1,517,256a185,185,0,0,1,33.27,35.39,182.78,182.78,0,0,1,22.65,42.85l.45,1.22A32.2,32.2,0,0,1,574,356h0a99.12,99.12,0,0,1-4.13,14.12,118,118,0,0,1-5.65,12.42c-2.07,3.86-4.27,7.5-6.56,11s-4.68,6.69-7.13,9.81a180.9,180.9,0,0,1-15.42,17.12c-2.69,2.64-5.44,5.18-8.29,7.68-1.44,1.24-2.89,2.48-4.42,3.72L520,433.66l-1.28,1c-.54.39-.78.59-1.78,1.25A42.72,42.72,0,1,1,472.7,362.8c-.37.27,0,.08.1.07s.36-.13.58-.23l1.31-.58c.91-.43,1.87-.92,2.82-1.41,1.92-1,3.84-2.08,5.71-3.2a109.79,109.79,0,0,0,10.46-7.11c1.56-1.22,3.05-2.44,4.42-3.65s2.57-2.38,3.68-3.51,2-2.17,2.83-3.13l2-2.52h0l1.06,21.67A117.19,117.19,0,0,0,493,332.93a114.15,114.15,0,0,0-20.82-21.55A131.89,131.89,0,0,0,446,295.19a152.4,152.4,0,0,0-14.72-6c-2.52-.88-5.1-1.68-7.69-2.45l-3.91-1.09-2-.5-1-.25c-.33-.09-.62-.31-.78-1.1l-2.13-10.4A61.58,61.58,0,0,1,432.41,215.93Z"/><path class="cls-17" d="M209,189.23c-.66,3.15-5.47,4.81-10.73,3.71s-9-4.56-8.34-7.72,5.47-4.81,10.74-3.71S209.64,186.07,209,189.23Z"/><path class="cls-17" d="M188,195.4c-.09,2.09-3,3.67-6.49,3.52s-6.25-2-6.16-4,3-3.67,6.48-3.53S188,193.31,188,195.4Z"/><path class="cls-17" d="M366.57,87.53c-1.07,1.13-4,.1-6.54-2.3s-3.73-5.27-2.66-6.4,4-.1,6.54,2.3S367.64,86.39,366.57,87.53Z"/><path class="cls-17" d="M325.34,128.76c-2.34.75-5.24-1.82-6.48-5.72s-.35-7.67,2-8.42,5.24,1.82,6.48,5.73S327.68,128,325.34,128.76Z"/><path class="cls-17" d="M313.37,117.14c-1.42.72-3.55-.61-4.77-3s-1-4.88.38-5.61,3.55.61,4.77,3S314.79,116.41,313.37,117.14Z"/><path class="cls-17" d="M114.39,337.88c-1.83,1-4.7-.63-6.4-3.69s-1.6-6.35.23-7.37,4.7.62,6.4,3.68S116.22,336.86,114.39,337.88Z"/><path class="cls-17" d="M100.68,326.49c-1.32.22-2.67-1.4-3-3.59s.43-4.15,1.75-4.37,2.67,1.4,3,3.6S102,326.28,100.68,326.49Z"/><path class="cls-17" d="M80,237.29c-1-.86-.71-2.93.71-4.65s3.41-2.41,4.43-1.56.71,2.93-.71,4.65S81,238.14,80,237.29Z"/><path class="cls-17" d="M64.54,386.38c-3.46,1.65-8.49-1.69-11.24-7.47s-2.18-11.78,1.28-13.43,8.49,1.7,11.24,7.47S68,384.73,64.54,386.38Z"/><path class="cls-17" d="M195.65,281.53c-2-2.36-1.12-6.34,1.93-8.9s7.12-2.72,9.1-.36,1.12,6.34-1.93,8.9S197.63,283.89,195.65,281.53Z"/><path class="cls-17" d="M196.87,265c-.29-1.84,1.39-3.63,3.76-4s4.53.8,4.83,2.64-1.39,3.63-3.76,4S197.17,266.79,196.87,265Z"/><path class="cls-17" d="M217.4,268.66a2.63,2.63,0,1,1,2.92-1.38A2.32,2.32,0,0,1,217.4,268.66Z"/><path class="cls-17" d="M557.37,369.77c1.39,1.8.7,5.76-1.55,8.86s-5.2,4.16-6.59,2.36-.7-5.76,1.54-8.86S556,368,557.37,369.77Z"/><path class="cls-17" d="M556.17,382.25c1,.95.91,3.59-.28,5.9s-3,3.41-4,2.45-.91-3.59.28-5.9S555.13,381.3,556.17,382.25Z"/><path class="cls-17" d="M141.7,483c1.12,2-.15,5.81-2.83,8.55s-5.75,3.35-6.87,1.37.15-5.81,2.83-8.54S140.58,481,141.7,483Z"/><path class="cls-17" d="M138.69,495.14c.89,1.1.37,3.69-1.14,5.8s-3.47,2.93-4.36,1.84-.37-3.69,1.15-5.8S137.8,494.05,138.69,495.14Z"/><path class="cls-17" d="M515.59,429.11c0,2.18-3.05,4.88-6.91,6s-7,.3-7.07-1.89,3-4.87,6.9-6S515.54,426.93,515.59,429.11Z"/><path class="cls-17" d="M367.37,532.23c2.11.56,3.83,4.28,3.85,8.3s-1.67,6.83-3.78,6.27-3.83-4.28-3.85-8.31S365.26,531.66,367.37,532.23Z"/><path class="cls-17" d="M405.2,288.62c2.48-1,6.23.92,8.38,4.34s1.87,7-.6,8-6.23-.93-8.38-4.35S402.72,289.64,405.2,288.62Z"/><path class="cls-17" d="M356.7,549.45c3.72-.14,8.76,4.18,11.25,9.62s1.49,10-2.24,10.11S357,565,354.46,559.55,353,549.58,356.7,549.45Z"/><path class="cls-17" d="M568.49,358.91c.6.73.26,3.06-.76,5.2s-2.35,3.28-3,2.54-.26-3.06.77-5.2S567.89,358.17,568.49,358.91Z"/><path class="cls-17" d="M479.21,239.61c1.74-1.5,6.17-.78,9.89,1.62s5.33,5.55,3.59,7.05-6.17.78-9.89-1.62S477.47,241.11,479.21,239.61Z"/><path class="cls-6" d="M155.31,453.19l-73.44,2.58-1.24-33.56,70.21-90.95L186,330l3.31,90.26,18.21-.64,1.16,31.66-18.21.64,1,27.45-35.13,1.24Zm-1.16-31.66-1.7-46.22-37.11,47.58Z"/><path class="cls-5" d="M156.31,481.41a.76.76,0,0,1-.76-.74l-1-26.69-72.68,2.56a.78.78,0,0,1-.79-.74l-1.23-33.56a.73.73,0,0,1,.16-.5l70.2-90.95a.78.78,0,0,1,.58-.3L186,329.26a.78.78,0,0,1,.8.74L190,419.5l17.44-.62a.76.76,0,0,1,.8.74l1.16,31.66a.78.78,0,0,1-.21.56.81.81,0,0,1-.53.24l-17.45.61,1,26.68a.76.76,0,0,1-.2.56.84.84,0,0,1-.54.24l-35.14,1.24Zm-1-29a.77.77,0,0,1,.77.74l1,26.68,33.6-1.18-1-26.68a.75.75,0,0,1,.2-.55.8.8,0,0,1,.54-.25l17.44-.61-1.1-30.12-17.45.61a.78.78,0,0,1-.79-.74l-3.29-89.5-34,1.2L81.41,422.46,82.61,455l72.67-2.55Zm-40-28.76a.75.75,0,0,1-.68-.42.76.76,0,0,1,.07-.82l37.12-47.59a.77.77,0,0,1,1.37.45l1.7,46.22a.81.81,0,0,1-.21.55.78.78,0,0,1-.54.25l-38.8,1.36Zm36.42-46.21L117,422.07l36.39-1.28Z"/><path class="cls-6" d="M219.52,404.28q-1.53-41.86,12.75-59.13T277,326.83q14.64-.52,24.18,2.81a44.5,44.5,0,0,1,15.69,9,50.51,50.51,0,0,1,9.81,12,65.21,65.21,0,0,1,6,14.89,143.12,143.12,0,0,1,5.31,34.12q1.47,40-11.22,59t-45.34,20.15q-18.31.64-29.81-4.87a48.21,48.21,0,0,1-19.15-16.68q-5.55-7.92-9-21.9A154,154,0,0,1,219.52,404.28Zm40-1.3q1,28,6.31,38.15t14.58,9.77a14.78,14.78,0,0,0,10.48-4.74q4.33-4.52,6.12-14t1.06-29.43q-1.08-29.25-6.34-39.15T276.65,354q-10,.35-14.08,10.77T259.51,403Z"/><path class="cls-5" d="M277.81,479.58c-10.61,0-19.49-1.68-26.44-5a49.24,49.24,0,0,1-19.44-16.94c-3.73-5.33-6.79-12.79-9.1-22.16a155.37,155.37,0,0,1-4.08-31.16c-1-28,3.32-48.05,12.92-59.65s24.88-17.88,45.34-18.6c9.81-.34,18,.62,24.47,2.85a45.64,45.64,0,0,1,16,9.14,51.83,51.83,0,0,1,9.95,12.18,66.25,66.25,0,0,1,6.12,15.06,144.2,144.2,0,0,1,5.34,34.3c1,26.69-2.84,46.68-11.35,59.43s-24,19.72-46,20.49C280.28,479.56,279,479.58,277.81,479.58Zm-57.52-75.32a153.2,153.2,0,0,0,4,30.85c2.26,9.18,5.24,16.46,8.86,21.64A47.78,47.78,0,0,0,252,473.18c7.52,3.6,17.43,5.23,29.45,4.79,21.41-.75,36.46-7.41,44.73-19.8s12.06-32.16,11.09-58.52A142.7,142.7,0,0,0,332,365.71a65,65,0,0,0-6-14.72,50.31,50.31,0,0,0-9.66-11.81A44,44,0,0,0,301,330.37c-6.25-2.18-14.29-3.11-23.91-2.77-20,.7-34.87,6.77-44.2,18S219.28,376.66,220.29,404.26Zm59.53,47.42c-6.21,0-11.15-3.43-14.69-10.2s-5.7-19.74-6.39-38.47h0c-.68-18.52.37-31.47,3.11-38.49,2.83-7.23,7.8-11,14.77-11.26,6.82-.22,12.13,3.11,15.77,10,3.56,6.67,5.72,19.95,6.44,39.48.48,13.29.12,23.24-1.07,29.6s-3.34,11.29-6.33,14.4a15.6,15.6,0,0,1-11,5ZM260.28,403c.68,18.5,2.77,31.22,6.22,37.82s7.92,9.57,13.87,9.36a14.09,14.09,0,0,0,9.95-4.5c2.78-2.88,4.77-7.46,5.93-13.62s1.52-16.08,1-29.25c-.71-19.3-2.81-32.36-6.25-38.82s-8.1-9.35-14.37-9.14-10.76,3.59-13.38,10.28-3.68,19.56-3,37.87Z"/><path class="cls-5" d="M246,333.68l10,7,0,0a.34.34,0,0,1,.15.32l-.64,6.66-.07-.14,3.87,3.13-4.06-2.87a.16.16,0,0,1-.06-.13h0l.21-6.68.17.34L245.14,335Z"/><path class="cls-5" d="M252.85,339l-3,4.15,0,.05a.27.27,0,0,1-.08.07l-4.21,2.2,3.86-2.76-.11.11,2.22-4.6Z"/><path class="cls-5" d="M291,446.18l5.83,7,.07.07a.38.38,0,0,1,.08.17l1.92,8.27-3-7.93.14.24-6.95-5.9Z"/><polygon class="cls-5" points="293.76 450.16 305.35 447.9 294.16 451.65 293.76 450.16"/><path class="cls-6" d="M425.72,443.68l-73.44,2.58-1.23-33.56,70.2-90.94,35.14-1.23,3.31,90.26,18.21-.64,1.16,31.66-18.21.64,1,27.45-35.14,1.23ZM424.56,412l-1.69-46.22-37.12,47.58Z"/><path class="cls-5" d="M426.73,471.9a.76.76,0,0,1-.77-.74l-1-26.68L352.31,447a.77.77,0,0,1-.8-.74l-1.23-33.56a.77.77,0,0,1,.16-.5l70.2-90.94a.78.78,0,0,1,.58-.3l35.14-1.23a.77.77,0,0,1,.8.74L460.44,410l17.44-.61a.77.77,0,0,1,.8.74l1.16,31.66a.77.77,0,0,1-.74.8l-17.44.61,1,26.68a.79.79,0,0,1-.75.8l-35.13,1.23Zm-1-29a.77.77,0,0,1,.77.75l1,26.68,33.6-1.18-1-26.68a.77.77,0,0,1,.74-.8l17.44-.61L477.17,411l-17.44.61a.77.77,0,0,1-.8-.74l-3.28-89.5-34,1.2L351.83,413,353,445.47l72.67-2.56Zm-40-28.75a.75.75,0,0,1-.68-.42.74.74,0,0,1,.08-.82l37.11-47.59a.77.77,0,0,1,1.38.45L425.33,412a.79.79,0,0,1-.74.8l-38.81,1.36Zm36.42-46.22-34.79,44.62,36.38-1.28Z"/><path class="cls-5" d="M422.61,367.84l9.25-4.49-.27.54-1.34-8.83h0a.37.37,0,0,1,.16-.36l11.5-8-.07.14-.61-11.3.93,11.28a.15.15,0,0,1-.06.14l-11.25,8.38.15-.36,1.61,8.79a.5.5,0,0,1-.26.53h0l-9,4.94Z"/><path class="cls-5" d="M81.27,455.28,93.1,441.41h0a.49.49,0,0,1,.46-.17l8.54,1.34-.25,0,9.41-5.23-.08.1,4.15-14.59-3.84,14.67a.18.18,0,0,1-.07.1l-9.19,5.6a.32.32,0,0,1-.23.05h0l-8.57-1.06.47-.18L82.46,456.26Z"/><path class="cls-5" d="M116.08,423.09l-4.37,14.53,0-.31,4.55,7.08-.13-.07,11.55.16-11.55.16a.17.17,0,0,1-.13-.07L111,437.73a.38.38,0,0,1-.06-.29v0l3.61-14.73Z"/><path class="cls-5" d="M433.35,353.11l-2.89-4.29.08.05-4.16-1.38,4.25,1.07a.05.05,0,0,1,.05,0l0,0,3.82,3.5Z"/><path class="cls-11" d="M115.76,347.5c3-7,24.52-.48,29.24,8.22-7.34.73-17.72,7.13-25.92,5.06C114.37,359.58,113.65,352.45,115.76,347.5Z"/><path class="cls-11" d="M110.83,358.47c5.48-6.6,26.55,7.35,28.83,18.23-8.14-1.57-21.36,2-29.52-2.88C105.45,371,107,363.12,110.83,358.47Z"/><path class="cls-11" d="M103.7,374.92c7.59-4,21.72,16.95,19.67,27.87-6.92-4.56-20.49-6.33-26.17-14C93.93,384.47,98.36,377.74,103.7,374.92Z"/><path class="cls-11" d="M89.07,389c6.76.48,7.53,20.42,1.6,26.9-2.74-5.95-11.12-12.78-11.76-20.26C78.54,391.37,84.31,388.7,89.07,389Z"/><path class="cls-11" d="M478.73,371.87c0-7.64-22.36-10.06-30.11-3.9,6.47,3.55,13.49,13.5,21.85,14.81C475.27,383.53,478.73,377.25,478.73,371.87Z"/><path class="cls-11" d="M477.14,389.55c-3.3-7.92-27.53-.77-32.91,9,8.24.89,19.83,8.17,29.06,5.92C478.6,403.13,479.47,395.13,477.14,389.55Z"/><path class="cls-11" d="M479.07,401.82c-5.41-6.65-26.62,7.07-29,17.93,8.15-1.49,21.34,2.21,29.55-2.57C484.32,414.44,482.88,406.51,479.07,401.82Z"/><path class="cls-11" d="M488.39,427c-3.88-5.56-19.67,2.2-23.9,10.41,6.5-.7,16.67,5,23.42,1.72C491.79,437.21,491.12,430.88,488.39,427Z"/></g></g></svg>